<svg ed:name="画布 1" width="2852" viewBox="0 0 2852 1532" ed:hSpacing="30" xmlns:ed="https://www.edrawsoft.cn/xml/2017/SVGExtensions/" xmlns="http://www.w3.org/2000/svg" height="1532" xmlns:xlink="http://www.w3.org/1999/xlink" id="page300000100" xmlns:ev="http://www.w3.org/2001/xml-events" ed:vSpacing="30"><style type="text/css"><![CDATA[
g[ed\:togtopicid],g[ed\:hyperlink],g[ed\:comment],g[ed\:note] {cursor:pointer;}
g[id] {-moz-user-select: none;-ms-user-select: none;user-select: none;}
svg text::selection,svg tspan::selection{background-color: #4285f4;color: #ffffff;fill: #ffffff;}
.st15 {fill:#00bc7b;font-family:微软雅黑;font-size:14pt}
.st14 {fill:#00bc7b;font-family:微软雅黑;font-size:16pt}
.st13 {fill:#00bc7b;font-family:微软雅黑;font-size:18pt;font-weight:bold}
.st19 {fill:#486aff;font-family:微软雅黑;font-size:12pt}
.st18 {fill:#486aff;font-family:微软雅黑;font-size:14pt}
.st17 {fill:#486aff;font-family:微软雅黑;font-size:16pt}
.st16 {fill:#486aff;font-family:微软雅黑;font-size:18pt;font-weight:bold}
.st21 {fill:#4d49be;font-family:微软雅黑;font-size:16pt}
.st20 {fill:#4d49be;font-family:微软雅黑;font-size:18pt;font-weight:bold}
.st12 {fill:#f3d321;font-family:微软雅黑;font-size:12pt}
.st11 {fill:#f3d321;font-family:微软雅黑;font-size:14pt}
.st10 {fill:#f3d321;font-family:微软雅黑;font-size:16pt}
.st9 {fill:#f3d321;font-family:微软雅黑;font-size:18pt;font-weight:bold}
.st8 {fill:#f6a04d;font-family:微软雅黑;font-size:12pt}
.st7 {fill:#f6a04d;font-family:微软雅黑;font-size:14pt}
.st6 {fill:#f6a04d;font-family:微软雅黑;font-size:16pt}
.st5 {fill:#f6a04d;font-family:微软雅黑;font-size:18pt;font-weight:bold}
.st4 {fill:#f9423a;font-family:微软雅黑;font-size:14pt}
.st3 {fill:#f9423a;font-family:微软雅黑;font-size:16pt}
.st2 {fill:#f9423a;font-family:微软雅黑;font-size:18pt;font-weight:bold}
.st1 {fill:#ffffff;font-family:微软雅黑;font-size:20pt;font-weight:bold}
]]></style><defs/><rect y="0" width="2852" fill="#ffffff" x="0" height="1532"/><path stroke-linecap="round" transform="matrix(1,0,0,1,1541.12,486.95)" stroke="#f9423a" ed:parentid="101" fill="#f9423a" stroke-linejoin="round" id="103" ed:tosuperid="102" d="M-63.4,158.7C-64.8,170.3,-58,178.7,-49.1,179.6C-40.3,180.4,-31.9,173.4,-31.2,161.8C-31,159.5,-30.9,157.2,-30.7,155C-30.5,152.7,-30.4,150.4,-30.2,148.1C-30,145.8,-29.8,143.5,-29.6,141.2C-29.4,139,-29.2,136.7,-29,134.4C-28.7,132.1,-28.5,129.8,-28.3,127.5C-28,125.2,-27.8,123,-27.6,120.7C-27.3,118.4,-27,116.1,-26.8,113.8C-26.5,111.5,-26.2,109.2,-25.9,107C-25.7,104.7,-25.4,102.4,-25.1,100.1C-24.8,97.8,-24.5,95.5,-24.2,93.2C-23.8,91,-23.5,88.7,-23.2,86.4C-22.9,84.1,-22.5,81.8,-22.2,79.6C-21.9,77.3,-21.5,75,-21.1,72.7C-20.8,70.4,-20.4,68.2,-20.1,65.9C-19.7,63.6,-19.3,61.3,-18.9,59C-18.5,56.8,-18.1,54.5,-17.7,52.2C-17.4,49.9,-16.9,47.7,-16.5,45.4C-16.1,43.1,-15.7,40.9,-15.3,38.6C-14.8,36.3,-14.4,34.1,-14,31.8C-13.5,29.5,-13.1,27.3,-12.6,25C-12.2,22.7,-11.7,20.5,-11.2,18.2C-10.8,16,-10.3,13.7,-9.8,11.4C-9.3,9.2,-8.8,6.9,-8.3,4.7C-7.8,2.4,-7.3,0.2,-6.8,-2.1C-6.3,-4.3,-5.7,-6.6,-5.2,-8.8C-4.7,-11.1,-4.1,-13.3,-3.6,-15.6C-3,-17.8,-2.5,-20,-1.9,-22.3C-1.3,-24.5,-0.8,-26.8,-0.2,-29C0.4,-31.2,1,-33.5,1.6,-35.7C2.2,-37.9,2.8,-40.1,3.4,-42.4C4,-44.6,4.7,-46.8,5.3,-49C5.9,-51.2,6.6,-53.5,7.2,-55.7C7.9,-57.9,8.6,-60.1,9.2,-62.3C9.9,-64.5,10.6,-66.7,11.3,-68.9C12,-71.1,12.7,-73.3,13.4,-75.5C14.2,-77.7,14.9,-79.9,15.6,-82C16.4,-84.2,17.1,-86.4,17.9,-88.6C18.7,-90.7,19.4,-92.9,20.2,-95.1C21,-97.2,21.8,-99.4,22.6,-101.5C23.5,-103.7,24.3,-105.8,25.2,-108C26,-110.1,26.9,-112.2,27.7,-114.4C28.6,-116.5,29.5,-118.6,30.4,-120.7C31.3,-122.8,32.3,-124.9,33.2,-127C34.1,-129.1,35.1,-131.2,36.1,-133.3C37.1,-135.3,38.1,-137.4,39.1,-139.4C40.1,-141.5,41.2,-143.5,42.2,-145.6C43.3,-147.6,44.4,-149.6,45.5,-151.6C46.6,-153.6,47.7,-155.6,48.9,-157.5C50,-159.5,51.2,-161.5,52.4,-163.4C53.6,-165.3,54.9,-167.2,56.2,-169.1C57.4,-171,58.7,-172.9,60.1,-174.7C61.4,-176.5,62.8,-178.3,64.2,-180.1C65.6,-181.9,67,-183.6,68.5,-185.3C70,-187,71.5,-188.6,73.1,-190.2C74.7,-191.8,76.3,-193.4,78,-194.9C79.6,-196.4,81.4,-197.8,83.1,-199.2C84.9,-200.5,86.7,-201.8,88.6,-203C90.5,-204.1,92.4,-205.2,94.4,-206.2C96.3,-207.2,98.4,-208,100.4,-208.8C102.4,-209.5,104.4,-210.1,106.8,-210.5C109.1,-211,111.9,-211.3,113.3,-211.4C114.7,-211.6,114.7,-211.5,114.7,-211.5C114.6,-209.5,118,-212.8,118,-214.3C118,-215.9,114.4,-215.1,114.7,-217.2C114.7,-217.2,114.7,-217.2,113.1,-217.2C111.5,-217.1,108.4,-217,105.7,-216.6C103,-216.3,100.7,-215.8,98.4,-215.1C96.1,-214.4,93.7,-213.6,91.4,-212.6C89.1,-211.7,86.9,-210.6,84.8,-209.4C82.6,-208.3,80.5,-207,78.5,-205.6C76.5,-204.3,74.5,-202.8,72.6,-201.3C70.7,-199.8,68.8,-198.2,67,-196.6C65.2,-195,63.5,-193.3,61.8,-191.6C60.1,-189.9,58.4,-188.2,56.8,-186.4C55.2,-184.6,53.6,-182.8,52.1,-180.9C50.6,-179.1,49.1,-177.2,47.6,-175.3C46.1,-173.4,44.7,-171.5,43.3,-169.5C41.9,-167.6,40.6,-165.6,39.2,-163.7C37.9,-161.7,36.6,-159.7,35.3,-157.7C34,-155.7,32.7,-153.6,31.5,-151.6C30.3,-149.6,29.1,-147.5,27.9,-145.5C26.7,-143.4,25.5,-141.3,24.4,-139.3C23.2,-137.2,22.1,-135.1,21,-133C19.9,-130.9,18.8,-128.8,17.7,-126.7C16.6,-124.6,15.6,-122.4,14.5,-120.3C13.5,-118.2,12.5,-116,11.5,-113.9C10.5,-111.7,9.5,-109.6,8.5,-107.4C7.5,-105.3,6.5,-103.1,5.6,-101C4.6,-98.8,3.7,-96.6,2.8,-94.4C1.9,-92.3,0.9,-90.1,0,-87.9C-0.9,-85.7,-1.7,-83.5,-2.6,-81.3C-3.5,-79.1,-4.4,-76.9,-5.2,-74.7C-6.1,-72.5,-6.9,-70.3,-7.8,-68.1C-8.6,-65.9,-9.4,-63.7,-10.2,-61.5C-11,-59.2,-11.8,-57,-12.6,-54.8C-13.4,-52.6,-14.2,-50.3,-15,-48.1C-15.7,-45.9,-16.5,-43.6,-17.3,-41.4C-18,-39.2,-18.8,-36.9,-19.5,-34.7C-20.2,-32.4,-21,-30.2,-21.7,-28C-22.4,-25.7,-23.1,-23.5,-23.8,-21.2C-24.5,-18.9,-25.2,-16.7,-25.9,-14.4C-26.6,-12.2,-27.3,-9.9,-27.9,-7.7C-28.6,-5.4,-29.3,-3.1,-29.9,-0.9C-30.6,1.4,-31.2,3.7,-31.9,5.9C-32.5,8.2,-33.1,10.5,-33.8,12.8C-34.4,15,-35,17.3,-35.6,19.6C-36.2,21.9,-36.8,24.2,-37.4,26.4C-38,28.7,-38.6,31,-39.2,33.3C-39.8,35.6,-40.3,37.9,-40.9,40.2C-41.5,42.5,-42,44.8,-42.6,47.1C-43.1,49.4,-43.7,51.6,-44.2,53.9C-44.8,56.2,-45.3,58.5,-45.8,60.9C-46.3,63.2,-46.8,65.5,-47.4,67.8C-47.9,70.1,-48.4,72.4,-48.9,74.7C-49.4,77,-49.8,79.3,-50.3,81.6C-50.8,83.9,-51.3,86.3,-51.7,88.6C-52.2,90.9,-52.7,93.2,-53.1,95.5C-53.6,97.9,-54,100.2,-54.4,102.5C-54.9,104.8,-55.3,107.2,-55.7,109.5C-56.2,111.8,-56.6,114.1,-57,116.5C-57.4,118.8,-57.8,121.2,-58.2,123.5C-58.6,125.8,-58.9,128.2,-59.3,130.5C-59.7,132.9,-60,135.2,-60.4,137.5C-60.8,139.9,-61.1,142.2,-61.4,144.6C-61.8,146.9,-62.1,149.3,-62.4,151.7C-62.7,154,-63.1,156.4,-63.4,158.7z"/><path stroke-linecap="round" transform="matrix(1,0,0,1,1926.47,247.66)" stroke="#f9423a" ed:parentid="102" fill="none" stroke-linejoin="round" id="105" ed:tosuperid="104" stroke-width="5.33333" d="M-17.5,25L-6.5,25C-6.5,15,11.5,-25,17.6,-25"/><path stroke-linecap="round" transform="matrix(1,0,0,1,2121.56,212.71)" stroke="#f9423a" ed:parentid="104" fill="none" stroke-linejoin="round" id="107" ed:tosuperid="106" stroke-width="4" d="M-17.6,10L-6.6,10C-6.6,6,11.5,-10,17.5,-10"/><path stroke-linecap="round" transform="matrix(1,0,0,1,2121.56,232.68)" stroke="#f9423a" ed:parentid="104" fill="none" stroke-linejoin="round" id="109" ed:tosuperid="108" stroke-width="4" d="M-6.6,-10C-6.6,-6,11.5,10,17.5,10"/><path stroke-linecap="round" transform="matrix(1,0,0,1,1926.47,297.59)" stroke="#f9423a" ed:parentid="102" fill="none" stroke-linejoin="round" id="111" ed:tosuperid="110" stroke-width="5.33333" d="M-6.5,-25C-6.5,-15,11.5,25,17.6,25"/><path stroke-linecap="round" transform="matrix(1,0,0,1,2121.56,302.58)" stroke="#f9423a" ed:parentid="110" fill="none" stroke-linejoin="round" id="113" ed:tosuperid="112" stroke-width="4" d="M-17.6,20L-6.6,20C-6.6,12,11.5,-20,17.5,-20"/><path stroke-linecap="round" transform="matrix(1,0,0,1,2121.56,322.56)" stroke="#f9423a" ed:parentid="110" fill="none" stroke-linejoin="round" id="115" ed:tosuperid="114" stroke-width="4" d="M-6.6,0C-6.6,0,11.5,0,17.5,0"/><path stroke-linecap="round" transform="matrix(1,0,0,1,2121.56,342.53)" stroke="#f9423a" ed:parentid="110" fill="none" stroke-linejoin="round" id="117" ed:tosuperid="116" stroke-width="4" d="M-6.6,-20C-6.6,-12,11.5,20,17.5,20"/><path stroke-linecap="round" transform="matrix(1,0,0,1,1541.12,628.14)" stroke="#f6a04d" ed:parentid="101" fill="#f6a04d" stroke-linejoin="round" id="119" ed:tosuperid="118" d="M-26.5,11.7C-32.7,21.6,-28.9,32.3,-21,36.3C-13.1,40.4,-2.3,37.2,2.2,26.5C3,24.5,3.9,22.5,4.8,20.5C5.6,18.5,6.6,16.6,7.5,14.6C8.5,12.7,9.5,10.7,10.5,8.8C11.5,6.9,12.6,5,13.7,3.1C14.8,1.2,15.9,-0.7,17,-2.6C18.2,-4.4,19.4,-6.3,20.6,-8.1C21.8,-9.9,23.1,-11.7,24.4,-13.5C25.6,-15.3,27,-17.1,28.3,-18.8C29.7,-20.5,31,-22.2,32.5,-23.9C33.9,-25.6,35.3,-27.3,36.8,-28.9C38.3,-30.5,39.8,-32.1,41.3,-33.7C42.9,-35.3,44.5,-36.8,46.1,-38.3C47.7,-39.8,49.4,-41.3,51,-42.7C52.7,-44.1,54.4,-45.5,56.2,-46.8C57.9,-48.2,59.7,-49.5,61.5,-50.7C63.3,-52,65.2,-53.2,67.1,-54.4C69,-55.5,70.9,-56.6,72.8,-57.7C74.8,-58.7,76.8,-59.7,78.8,-60.7C80.8,-61.6,82.8,-62.5,84.9,-63.3C87,-64.2,89.1,-64.9,91.2,-65.6C93.4,-66.3,95.5,-66.9,97.7,-67.5C99.8,-68,101.9,-68.5,104.3,-68.9C106.7,-69.3,109.3,-69.7,111,-69.9C112.8,-70.2,113.7,-70.2,114.7,-70.3C116.7,-70.5,118,-71.6,118,-73.1C118,-74.7,116.7,-75.8,114.7,-76C113.7,-76.1,112.7,-76.1,110.8,-76.2C108.9,-76.3,106.1,-76.3,103.6,-76.3C101,-76.2,98.7,-76.1,96.3,-75.9C93.9,-75.7,91.5,-75.4,89,-75C86.6,-74.6,84.2,-74.2,81.8,-73.7C79.4,-73.2,77,-72.6,74.7,-71.9C72.3,-71.2,70,-70.5,67.6,-69.7C65.3,-68.9,63,-68,60.7,-67.1C58.4,-66.1,56.2,-65.1,53.9,-64.1C51.7,-63,49.5,-61.9,47.3,-60.7C45.1,-59.5,43,-58.3,40.8,-57C38.7,-55.8,36.6,-54.4,34.6,-53.1C32.5,-51.7,30.5,-50.3,28.5,-48.8C26.5,-47.4,24.5,-45.9,22.5,-44.3C20.6,-42.8,18.7,-41.2,16.8,-39.6C14.9,-38,13.1,-36.3,11.2,-34.6C9.4,-32.9,7.6,-31.2,5.9,-29.4C4.1,-27.7,2.4,-25.9,0.7,-24.1C-1,-22.3,-2.7,-20.4,-4.3,-18.5C-6,-16.7,-7.6,-14.8,-9.1,-12.8C-10.7,-10.9,-12.3,-8.9,-13.8,-6.9C-15.3,-5,-16.8,-2.9,-18.2,-0.9C-19.7,1.1,-21.1,3.2,-22.5,5.3C-23.9,7.4,-25.2,9.6,-26.5,11.7z"/><path stroke-linecap="round" transform="matrix(1,0,0,1,1926.47,523.18)" stroke="#f6a04d" ed:parentid="118" fill="none" stroke-linejoin="round" id="121" ed:tosuperid="120" stroke-width="5.33333" d="M-17.5,31.8L-6.5,31.8C-6.5,19.1,11.5,-31.8,17.6,-31.8"/><path stroke-linecap="round" transform="matrix(1,0,0,1,2121.56,467.63)" stroke="#f6a04d" ed:parentid="120" fill="none" stroke-linejoin="round" id="123" ed:tosuperid="122" stroke-width="4" d="M-17.6,23.7L-6.6,23.7C-6.6,14.2,11.5,-23.7,17.5,-23.7"/><path stroke-linecap="round" transform="matrix(1,0,0,1,2278.11,435.18)" stroke="#f6a04d" ed:parentid="122" fill="none" stroke-linejoin="round" id="125" ed:tosuperid="124" stroke-width="3" d="M-17.5,8.7L-6.5,8.7C-6.5,5.2,11.5,-8.7,17.5,-8.7"/><path stroke-linecap="round" transform="matrix(1,0,0,1,2278.11,452.65)" stroke="#f6a04d" ed:parentid="122" fill="none" stroke-linejoin="round" id="127" ed:tosuperid="126" stroke-width="3" d="M-6.5,-8.7C-6.5,-5.2,11.5,8.7,17.5,8.7"/><path stroke-linecap="round" transform="matrix(1,0,0,1,2121.56,495.09)" stroke="#f6a04d" ed:parentid="120" fill="none" stroke-linejoin="round" id="129" ed:tosuperid="128" stroke-width="4" d="M-6.6,-3.7C-6.6,-2.2,11.5,3.7,17.5,3.7"/><path stroke-linecap="round" transform="matrix(1,0,0,1,2121.56,515.06)" stroke="#f6a04d" ed:parentid="120" fill="none" stroke-linejoin="round" id="131" ed:tosuperid="130" stroke-width="4" d="M-6.6,-23.7C-6.6,-14.2,11.5,23.7,17.5,23.7"/><path stroke-linecap="round" transform="matrix(1,0,0,1,1926.47,586.84)" stroke="#f6a04d" ed:parentid="118" fill="none" stroke-linejoin="round" id="133" ed:tosuperid="132" stroke-width="5.33333" d="M-6.5,-31.8C-6.5,-19.1,11.5,31.8,17.6,31.8"/><path stroke-linecap="round" transform="matrix(1,0,0,1,2121.56,598.69)" stroke="#f6a04d" ed:parentid="132" fill="none" stroke-linejoin="round" id="135" ed:tosuperid="134" stroke-width="4" d="M-17.6,20L-6.6,20C-6.6,12,11.5,-20,17.5,-20"/><path stroke-linecap="round" transform="matrix(1,0,0,1,2121.56,618.67)" stroke="#f6a04d" ed:parentid="132" fill="none" stroke-linejoin="round" id="137" ed:tosuperid="136" stroke-width="4" d="M-6.6,0C-6.6,0,11.5,0,17.5,0"/><path stroke-linecap="round" transform="matrix(1,0,0,1,2121.56,638.64)" stroke="#f6a04d" ed:parentid="132" fill="none" stroke-linejoin="round" id="139" ed:tosuperid="138" stroke-width="4" d="M-6.6,-20C-6.6,-12,11.5,20,17.5,20"/><path stroke-linecap="round" transform="matrix(1,0,0,1,1541.12,915.61)" stroke="#f3d321" ed:parentid="101" fill="#f3d321" stroke-linejoin="round" id="141" ed:tosuperid="140" d="M-31.2,-161.8C-31.9,-173.4,-40.3,-180.4,-49.1,-179.6C-58,-178.7,-64.8,-170.3,-63.4,-158.7C-63.1,-156.4,-62.7,-154,-62.4,-151.7C-62.1,-149.3,-61.8,-146.9,-61.4,-144.6C-61.1,-142.2,-60.8,-139.9,-60.4,-137.5C-60,-135.2,-59.7,-132.9,-59.3,-130.5C-58.9,-128.2,-58.6,-125.8,-58.2,-123.5C-57.8,-121.2,-57.4,-118.8,-57,-116.5C-56.6,-114.1,-56.2,-111.8,-55.7,-109.5C-55.3,-107.2,-54.9,-104.8,-54.4,-102.5C-54,-100.2,-53.6,-97.9,-53.1,-95.5C-52.7,-93.2,-52.2,-90.9,-51.7,-88.6C-51.3,-86.3,-50.8,-83.9,-50.3,-81.6C-49.8,-79.3,-49.4,-77,-48.9,-74.7C-48.4,-72.4,-47.9,-70.1,-47.4,-67.8C-46.8,-65.5,-46.3,-63.2,-45.8,-60.9C-45.3,-58.5,-44.8,-56.2,-44.2,-53.9C-43.7,-51.6,-43.1,-49.4,-42.6,-47.1C-42,-44.8,-41.5,-42.5,-40.9,-40.2C-40.3,-37.9,-39.8,-35.6,-39.2,-33.3C-38.6,-31,-38,-28.7,-37.4,-26.4C-36.8,-24.2,-36.2,-21.9,-35.6,-19.6C-35,-17.3,-34.4,-15,-33.8,-12.8C-33.1,-10.5,-32.5,-8.2,-31.9,-5.9C-31.2,-3.7,-30.6,-1.4,-29.9,0.9C-29.3,3.1,-28.6,5.4,-27.9,7.7C-27.3,9.9,-26.6,12.2,-25.9,14.4C-25.2,16.7,-24.5,18.9,-23.8,21.2C-23.1,23.5,-22.4,25.7,-21.7,28C-21,30.2,-20.2,32.4,-19.5,34.7C-18.8,36.9,-18,39.2,-17.3,41.4C-16.5,43.6,-15.7,45.9,-15,48.1C-14.2,50.3,-13.4,52.6,-12.6,54.8C-11.8,57,-11,59.2,-10.2,61.5C-9.4,63.7,-8.6,65.9,-7.8,68.1C-6.9,70.3,-6.1,72.5,-5.2,74.7C-4.4,76.9,-3.5,79.1,-2.6,81.3C-1.7,83.5,-0.9,85.7,0,87.9C0.9,90.1,1.9,92.3,2.8,94.4C3.7,96.6,4.6,98.8,5.6,101C6.5,103.1,7.5,105.3,8.5,107.4C9.5,109.6,10.5,111.7,11.5,113.9C12.5,116,13.5,118.2,14.5,120.3C15.6,122.4,16.6,124.6,17.7,126.7C18.8,128.8,19.9,130.9,21,133C22.1,135.1,23.2,137.2,24.4,139.3C25.5,141.3,26.7,143.4,27.9,145.5C29.1,147.5,30.3,149.6,31.5,151.6C32.7,153.6,34,155.7,35.3,157.7C36.6,159.7,37.9,161.7,39.2,163.7C40.6,165.6,41.9,167.6,43.3,169.5C44.7,171.5,46.1,173.4,47.6,175.3C49.1,177.2,50.6,179.1,52.1,180.9C53.6,182.8,55.2,184.6,56.8,186.4C58.4,188.2,60.1,189.9,61.8,191.6C63.5,193.3,65.2,195,67,196.6C68.8,198.2,70.7,199.8,72.6,201.3C74.5,202.8,76.5,204.3,78.5,205.6C80.5,207,82.6,208.3,84.8,209.4C86.9,210.6,89.1,211.7,91.4,212.6C93.7,213.6,96.1,214.4,98.4,215.1C100.7,215.8,103,216.3,105.7,216.6C108.4,217,111.5,217.1,113.1,217.2C114.7,217.2,114.7,217.2,114.7,217.2C114.4,215.1,118,215.9,118,214.3C118,212.8,114.6,209.5,114.7,211.5C114.7,211.5,114.7,211.6,113.3,211.4C111.9,211.3,109.1,211,106.8,210.5C104.4,210.1,102.4,209.5,100.4,208.8C98.4,208,96.3,207.2,94.4,206.2C92.4,205.2,90.5,204.1,88.6,203C86.7,201.8,84.9,200.5,83.1,199.2C81.4,197.8,79.6,196.4,78,194.9C76.3,193.4,74.7,191.8,73.1,190.2C71.5,188.6,70,187,68.5,185.3C67,183.6,65.6,181.9,64.2,180.1C62.8,178.3,61.4,176.5,60.1,174.7C58.7,172.9,57.4,171,56.2,169.1C54.9,167.2,53.6,165.3,52.4,163.4C51.2,161.5,50,159.5,48.9,157.5C47.7,155.6,46.6,153.6,45.5,151.6C44.4,149.6,43.3,147.6,42.2,145.6C41.2,143.5,40.1,141.5,39.1,139.4C38.1,137.4,37.1,135.3,36.1,133.3C35.1,131.2,34.1,129.1,33.2,127C32.3,124.9,31.3,122.8,30.4,120.7C29.5,118.6,28.6,116.5,27.7,114.4C26.9,112.2,26,110.1,25.2,108C24.3,105.8,23.5,103.7,22.6,101.5C21.8,99.4,21,97.2,20.2,95.1C19.4,92.9,18.7,90.7,17.9,88.6C17.1,86.4,16.4,84.2,15.6,82C14.9,79.9,14.2,77.7,13.4,75.5C12.7,73.3,12,71.1,11.3,68.9C10.6,66.7,9.9,64.5,9.2,62.3C8.6,60.1,7.9,57.9,7.2,55.7C6.6,53.5,5.9,51.2,5.3,49C4.7,46.8,4,44.6,3.4,42.4C2.8,40.1,2.2,37.9,1.6,35.7C1,33.5,0.4,31.2,-0.2,29C-0.8,26.8,-1.3,24.5,-1.9,22.3C-2.5,20,-3,17.8,-3.6,15.6C-4.1,13.3,-4.7,11.1,-5.2,8.8C-5.7,6.6,-6.3,4.3,-6.8,2.1C-7.3,-0.2,-7.8,-2.4,-8.3,-4.7C-8.8,-6.9,-9.3,-9.2,-9.8,-11.4C-10.3,-13.7,-10.8,-16,-11.2,-18.2C-11.7,-20.5,-12.2,-22.7,-12.6,-25C-13.1,-27.3,-13.5,-29.5,-14,-31.8C-14.4,-34.1,-14.8,-36.3,-15.3,-38.6C-15.7,-40.9,-16.1,-43.1,-16.5,-45.4C-16.9,-47.7,-17.4,-49.9,-17.7,-52.2C-18.1,-54.5,-18.5,-56.8,-18.9,-59C-19.3,-61.3,-19.7,-63.6,-20.1,-65.9C-20.4,-68.2,-20.8,-70.4,-21.1,-72.7C-21.5,-75,-21.9,-77.3,-22.2,-79.6C-22.5,-81.8,-22.9,-84.1,-23.2,-86.4C-23.5,-88.7,-23.8,-91,-24.2,-93.2C-24.5,-95.5,-24.8,-97.8,-25.1,-100.1C-25.4,-102.4,-25.7,-104.7,-25.9,-107C-26.2,-109.2,-26.5,-111.5,-26.8,-113.8C-27,-116.1,-27.3,-118.4,-27.6,-120.7C-27.8,-123,-28,-125.2,-28.3,-127.5C-28.5,-129.8,-28.7,-132.1,-29,-134.4C-29.2,-136.7,-29.4,-139,-29.6,-141.2C-29.8,-143.5,-30,-145.8,-30.2,-148.1C-30.4,-150.4,-30.5,-152.7,-30.7,-155C-30.9,-157.2,-31,-159.5,-31.2,-161.8z"/><path stroke-linecap="round" transform="matrix(1,0,0,1,1902.47,956.82)" stroke="#f3d321" ed:parentid="140" fill="none" stroke-linejoin="round" id="143" ed:tosuperid="142" stroke-width="5.33333" d="M-17.5,173.1L-6.5,173.1C-6.5,103.9,11.5,-173.1,17.6,-173.1"/><path stroke-linecap="round" transform="matrix(1,0,0,1,2293.89,761.87)" stroke="#f3d321" ed:parentid="142" fill="none" stroke-linejoin="round" id="145" ed:tosuperid="144" stroke-width="4" d="M-17.6,21.8L-6.6,21.8C-6.6,13.1,11.5,-21.8,17.5,-21.8"/><path stroke-linecap="round" transform="matrix(1,0,0,1,2565.11,731.29)" stroke="#f3d321" ed:parentid="144" fill="none" stroke-linejoin="round" id="147" ed:tosuperid="146" stroke-width="3" d="M-17.5,8.7L-6.5,8.7C-6.5,5.2,11.5,-8.7,17.6,-8.7"/><path stroke-linecap="round" transform="matrix(1,0,0,1,2565.11,748.76)" stroke="#f3d321" ed:parentid="144" fill="none" stroke-linejoin="round" id="149" ed:tosuperid="148" stroke-width="3" d="M-6.5,-8.7C-6.5,-5.2,11.5,8.7,17.6,8.7"/><path stroke-linecap="round" transform="matrix(1,0,0,1,2293.89,805.55)" stroke="#f3d321" ed:parentid="142" fill="none" stroke-linejoin="round" id="151" ed:tosuperid="150" stroke-width="4" d="M-6.6,-21.8C-6.6,-13.1,11.5,21.8,17.5,21.8"/><path stroke-linecap="round" transform="matrix(1,0,0,1,2471.78,809.92)" stroke="#f3d321" ed:parentid="150" fill="none" stroke-linejoin="round" id="153" ed:tosuperid="152" stroke-width="3" d="M-17.5,17.5L-6.5,17.5C-6.5,10.5,11.5,-17.5,17.6,-17.5"/><path stroke-linecap="round" transform="matrix(1,0,0,1,2471.78,827.39)" stroke="#f3d321" ed:parentid="150" fill="none" stroke-linejoin="round" id="155" ed:tosuperid="154" stroke-width="3" d="M-6.5,0C-6.5,0,11.5,0,17.6,0"/><path stroke-linecap="round" transform="matrix(1,0,0,1,2471.78,844.86)" stroke="#f3d321" ed:parentid="150" fill="none" stroke-linejoin="round" id="157" ed:tosuperid="156" stroke-width="3" d="M-6.5,-17.5C-6.5,-10.5,11.5,17.5,17.6,17.5"/><path stroke-linecap="round" transform="matrix(1,0,0,1,1902.47,1078.51)" stroke="#f3d321" ed:parentid="140" fill="none" stroke-linejoin="round" id="159" ed:tosuperid="158" stroke-width="5.33333" d="M-6.5,51.4C-6.5,30.9,11.5,-51.4,17.6,-51.4"/><path stroke-linecap="round" transform="matrix(1,0,0,1,2101.89,963.43)" stroke="#f3d321" ed:parentid="158" fill="none" stroke-linejoin="round" id="161" ed:tosuperid="160" stroke-width="4" d="M-17.6,63.7L-6.6,63.7C-6.6,38.2,11.5,-63.7,17.5,-63.7"/><path stroke-linecap="round" transform="matrix(1,0,0,1,2101.89,983.4)" stroke="#f3d321" ed:parentid="158" fill="none" stroke-linejoin="round" id="163" ed:tosuperid="162" stroke-width="4" d="M-6.6,43.7C-6.6,26.2,11.5,-43.7,17.5,-43.7"/><path stroke-linecap="round" transform="matrix(1,0,0,1,2261.11,939.72)" stroke="#f3d321" ed:parentid="162" fill="none" stroke-linejoin="round" id="165" ed:tosuperid="164" stroke-width="3" d="M-17.5,0L-6.5,0C-6.5,0,11.5,0,17.6,0"/><path stroke-linecap="round" transform="matrix(1,0,0,1,2101.89,1037.07)" stroke="#f3d321" ed:parentid="158" fill="none" stroke-linejoin="round" id="167" ed:tosuperid="166" stroke-width="4" d="M-6.6,-10C-6.6,-6,11.5,10,17.5,10"/><path stroke-linecap="round" transform="matrix(1,0,0,1,2279.78,1012.11)" stroke="#f3d321" ed:parentid="166" fill="none" stroke-linejoin="round" id="169" ed:tosuperid="168" stroke-width="3" d="M-17.5,34.9L-6.5,34.9C-6.5,21,11.5,-34.9,17.6,-34.9"/><path stroke-linecap="round" transform="matrix(1,0,0,1,2279.78,1029.58)" stroke="#f3d321" ed:parentid="166" fill="none" stroke-linejoin="round" id="171" ed:tosuperid="170" stroke-width="3" d="M-6.5,17.5C-6.5,10.5,11.5,-17.5,17.6,-17.5"/><path stroke-linecap="round" transform="matrix(1,0,0,1,2279.78,1047.06)" stroke="#f3d321" ed:parentid="166" fill="none" stroke-linejoin="round" id="173" ed:tosuperid="172" stroke-width="3" d="M-6.5,0C-6.5,0,11.5,0,17.6,0"/><path stroke-linecap="round" transform="matrix(1,0,0,1,2279.78,1064.53)" stroke="#f3d321" ed:parentid="166" fill="none" stroke-linejoin="round" id="175" ed:tosuperid="174" stroke-width="3" d="M-6.5,-17.5C-6.5,-10.5,11.5,17.5,17.6,17.5"/><path stroke-linecap="round" transform="matrix(1,0,0,1,2279.78,1082)" stroke="#f3d321" ed:parentid="166" fill="none" stroke-linejoin="round" id="177" ed:tosuperid="176" stroke-width="3" d="M-6.5,-34.9C-6.5,-21,11.5,34.9,17.6,34.9"/><path stroke-linecap="round" transform="matrix(1,0,0,1,2101.89,1090.74)" stroke="#f3d321" ed:parentid="158" fill="none" stroke-linejoin="round" id="179" ed:tosuperid="178" stroke-width="4" d="M-6.6,-63.7C-6.6,-38.2,11.5,63.7,17.5,63.7"/><path stroke-linecap="round" transform="matrix(1,0,0,1,1902.47,1192.09)" stroke="#f3d321" ed:parentid="140" fill="none" stroke-linejoin="round" id="181" ed:tosuperid="180" stroke-width="5.33333" d="M-6.5,-62.2C-6.5,-37.3,11.5,62.2,17.6,62.2"/><path stroke-linecap="round" transform="matrix(1,0,0,1,2059.22,1224.29)" stroke="#f3d321" ed:parentid="180" fill="none" stroke-linejoin="round" id="183" ed:tosuperid="182" stroke-width="4" d="M-17.5,30L-6.5,30C-6.5,18,11.5,-30,17.6,-30"/><path stroke-linecap="round" transform="matrix(1,0,0,1,2059.22,1244.26)" stroke="#f3d321" ed:parentid="180" fill="none" stroke-linejoin="round" id="185" ed:tosuperid="184" stroke-width="4" d="M-6.5,10C-6.5,6,11.5,-10,17.6,-10"/><path stroke-linecap="round" transform="matrix(1,0,0,1,2059.22,1264.24)" stroke="#f3d321" ed:parentid="180" fill="none" stroke-linejoin="round" id="187" ed:tosuperid="186" stroke-width="4" d="M-6.5,-10C-6.5,-6,11.5,10,17.6,10"/><path stroke-linecap="round" transform="matrix(1,0,0,1,2059.22,1284.21)" stroke="#f3d321" ed:parentid="180" fill="none" stroke-linejoin="round" id="189" ed:tosuperid="188" stroke-width="4" d="M-6.5,-30C-6.5,-18,11.5,30,17.6,30"/><path stroke-linecap="round" transform="matrix(1,0,0,1,1902.47,1262)" stroke="#f3d321" ed:parentid="140" fill="none" stroke-linejoin="round" id="191" ed:tosuperid="190" stroke-width="5.33333" d="M-6.5,-132.1C-6.5,-79.2,11.5,132.1,17.6,132.1"/><path stroke-linecap="round" transform="matrix(1,0,0,1,2187.22,1374.08)" stroke="#f3d321" ed:parentid="190" fill="none" stroke-linejoin="round" id="193" ed:tosuperid="192" stroke-width="4" d="M-17.5,20L-6.5,20C-6.5,12,11.5,-20,17.6,-20"/><path stroke-linecap="round" transform="matrix(1,0,0,1,2187.22,1394.06)" stroke="#f3d321" ed:parentid="190" fill="none" stroke-linejoin="round" id="195" ed:tosuperid="194" stroke-width="4" d="M-6.5,0C-6.5,0,11.5,0,17.6,0"/><path stroke-linecap="round" transform="matrix(1,0,0,1,2187.22,1414.03)" stroke="#f3d321" ed:parentid="190" fill="none" stroke-linejoin="round" id="197" ed:tosuperid="196" stroke-width="4" d="M-6.5,-20C-6.5,-12,11.5,20,17.6,20"/><path stroke-linecap="round" transform="matrix(1,0,0,1,1902.47,1303.05)" stroke="#f3d321" ed:parentid="140" fill="none" stroke-linejoin="round" id="199" ed:tosuperid="198" stroke-width="5.33333" d="M-6.5,-173.1C-6.5,-103.9,11.5,173.1,17.6,173.1"/><path stroke-linecap="round" transform="matrix(1,0,0,1,1311.82,850.55)" stroke="#00bc7b" ed:parentid="101" fill="#00bc7b" stroke-linejoin="round" id="201" ed:tosuperid="200" d="M55.9,-92.5C58.4,-103.8,52,-112.8,43.2,-114.3C34.4,-115.8,25.5,-109.5,24,-97.9C23.7,-95.7,23.4,-93.5,23.1,-91.2C22.8,-89,22.5,-86.7,22.1,-84.5C21.8,-82.3,21.4,-80,21,-77.8C20.6,-75.5,20.3,-73.3,19.9,-71.1C19.4,-68.8,19,-66.6,18.6,-64.4C18.2,-62.1,17.7,-59.9,17.3,-57.7C16.8,-55.4,16.3,-53.2,15.8,-51C15.3,-48.7,14.8,-46.5,14.3,-44.3C13.8,-42.1,13.3,-39.9,12.8,-37.6C12.2,-35.4,11.7,-33.2,11.1,-31C10.5,-28.8,9.9,-26.6,9.4,-24.4C8.8,-22.2,8.2,-20,7.5,-17.8C6.9,-15.6,6.3,-13.4,5.6,-11.2C5,-9,4.3,-6.8,3.7,-4.6C3,-2.4,2.3,-0.2,1.6,1.9C0.9,4.1,0.2,6.3,-0.6,8.4C-1.3,10.6,-2,12.8,-2.8,14.9C-3.6,17.1,-4.3,19.2,-5.1,21.4C-5.9,23.5,-6.7,25.7,-7.5,27.8C-8.3,29.9,-9.2,32,-10,34.2C-10.9,36.3,-11.8,38.4,-12.6,40.5C-13.5,42.6,-14.4,44.7,-15.3,46.8C-16.3,48.9,-17.2,51,-18.2,53C-19.1,55.1,-20.1,57.2,-21.1,59.2C-22.1,61.3,-23.1,63.3,-24.1,65.3C-25.2,67.3,-26.2,69.4,-27.3,71.4C-28.4,73.4,-29.5,75.4,-30.6,77.3C-31.7,79.3,-32.9,81.3,-34,83.2C-35.2,85.2,-36.4,87.1,-37.6,89C-38.8,90.9,-40.1,92.8,-41.3,94.7C-42.6,96.6,-43.9,98.4,-45.2,100.3C-46.6,102.1,-47.9,103.9,-49.3,105.7C-50.7,107.4,-52.1,109.2,-53.6,110.9C-55,112.6,-56.5,114.3,-58,116C-59.6,117.6,-61.1,119.2,-62.7,120.8C-64.3,122.4,-65.9,123.9,-67.6,125.4C-69.3,126.9,-71,128.3,-72.8,129.7C-74.5,131,-76.3,132.4,-78.2,133.6C-80,134.8,-81.9,136,-83.8,137.1C-85.8,138.2,-87.7,139.3,-89.7,140.2C-91.8,141.1,-93.8,142,-95.9,142.7C-98,143.5,-100.1,144.1,-102.3,144.6C-104.4,145.2,-106.7,145.6,-108.8,145.9C-110.9,146.2,-112.8,146.3,-114.7,146.4C-116.7,146.6,-118,147.7,-118,149.3C-118,150.8,-116.7,152.1,-114.7,152.1C-112.6,152.1,-110.5,152.2,-108.2,152.1C-105.9,152,-103.4,151.7,-100.9,151.3C-98.5,150.9,-96.1,150.4,-93.7,149.8C-91.4,149.2,-89,148.4,-86.7,147.6C-84.4,146.8,-82.1,145.8,-79.9,144.8C-77.7,143.8,-75.5,142.7,-73.4,141.5C-71.2,140.3,-69.1,139,-67.1,137.7C-65,136.4,-63,135,-61.1,133.5C-59.1,132.1,-57.2,130.6,-55.3,129C-53.4,127.5,-51.6,125.9,-49.8,124.3C-48,122.6,-46.3,121,-44.6,119.3C-42.8,117.5,-41.2,115.8,-39.5,114C-37.9,112.3,-36.3,110.5,-34.7,108.7C-33.1,106.8,-31.5,105,-30,103.1C-28.5,101.3,-27,99.4,-25.6,97.5C-24.1,95.6,-22.7,93.6,-21.2,91.7C-19.8,89.7,-18.5,87.8,-17.1,85.8C-15.7,83.8,-14.4,81.8,-13.1,79.8C-11.8,77.8,-10.5,75.8,-9.2,73.8C-8,71.7,-6.7,69.7,-5.5,67.6C-4.3,65.6,-3,63.5,-1.9,61.5C-0.7,59.4,0.5,57.3,1.6,55.2C2.8,53.1,3.9,51,5,48.9C6.2,46.8,7.3,44.6,8.3,42.5C9.4,40.4,10.5,38.3,11.5,36.1C12.6,34,13.6,31.8,14.6,29.6C15.6,27.5,16.6,25.3,17.6,23.1C18.6,21,19.6,18.8,20.5,16.6C21.5,14.4,22.4,12.2,23.3,10C24.3,7.8,25.2,5.6,26.1,3.4C27,1.2,27.9,-1,28.7,-3.2C29.6,-5.4,30.5,-7.7,31.3,-9.9C32.2,-12.1,33,-14.4,33.8,-16.6C34.6,-18.9,35.4,-21.1,36.2,-23.4C37,-25.6,37.8,-27.9,38.5,-30.1C39.3,-32.4,40.1,-34.7,40.8,-36.9C41.5,-39.2,42.3,-41.5,43,-43.8C43.7,-46,44.4,-48.3,45.1,-50.6C45.8,-52.9,46.4,-55.2,47.1,-57.5C47.7,-59.8,48.4,-62.1,49,-64.4C49.6,-66.8,50.3,-69.1,50.9,-71.4C51.5,-73.7,52,-76.1,52.6,-78.4C53.2,-80.7,53.7,-83.1,54.3,-85.4C54.8,-87.8,55.3,-90.1,55.9,-92.5z"/><path stroke-linecap="round" transform="matrix(1,0,0,1,950.48,964.31)" stroke="#00bc7b" ed:parentid="200" fill="none" stroke-linejoin="round" id="203" ed:tosuperid="202" stroke-width="5.33333" d="M17.5,35.5L6.5,35.5C6.5,21.3,-11.5,-35.5,-17.5,-35.5"/><path stroke-linecap="round" transform="matrix(1,0,0,1,691.39,918.82)" stroke="#00bc7b" ed:parentid="202" fill="none" stroke-linejoin="round" id="205" ed:tosuperid="204" stroke-width="4" d="M17.5,10L6.5,10C6.5,6,-11.5,-10,-17.5,-10"/><path stroke-linecap="round" transform="matrix(1,0,0,1,691.39,938.79)" stroke="#00bc7b" ed:parentid="202" fill="none" stroke-linejoin="round" id="207" ed:tosuperid="206" stroke-width="4" d="M6.5,-10C6.5,-6,-11.5,10,-17.5,10"/><path stroke-linecap="round" transform="matrix(1,0,0,1,950.48,1004.25)" stroke="#00bc7b" ed:parentid="200" fill="none" stroke-linejoin="round" id="209" ed:tosuperid="208" stroke-width="5.33333" d="M6.5,-4.4C6.5,-2.7,-11.5,4.4,-17.5,4.4"/><path stroke-linecap="round" transform="matrix(1,0,0,1,734.06,998.7)" stroke="#00bc7b" ed:parentid="208" fill="none" stroke-linejoin="round" id="211" ed:tosuperid="210" stroke-width="4" d="M17.5,10L6.5,10C6.5,6,-11.5,-10,-17.5,-10"/><path stroke-linecap="round" transform="matrix(1,0,0,1,734.06,1018.68)" stroke="#00bc7b" ed:parentid="208" fill="none" stroke-linejoin="round" id="213" ed:tosuperid="212" stroke-width="4" d="M6.5,-10C6.5,-6,-11.5,10,-17.5,10"/><path stroke-linecap="round" transform="matrix(1,0,0,1,950.48,1035.32)" stroke="#00bc7b" ed:parentid="200" fill="none" stroke-linejoin="round" id="215" ed:tosuperid="214" stroke-width="5.33333" d="M6.5,-35.5C6.5,-21.3,-11.5,35.5,-17.6,35.5"/><path stroke-linecap="round" transform="matrix(1,0,0,1,691.39,1070.83)" stroke="#00bc7b" ed:parentid="214" fill="none" stroke-linejoin="round" id="217" ed:tosuperid="216" stroke-width="4" d="M17.5,0L6.5,0C6.5,0,-11.5,0,-17.5,0"/><path stroke-linecap="round" transform="matrix(1,0,0,1,1311.82,709.64)" stroke="#486aff" ed:parentid="101" fill="#486aff" stroke-linejoin="round" id="219" ed:tosuperid="218" d="M-47.4,18.4C-35.7,18.4,-29.8,7.4,-31.5,-1.3C-33.3,-10,-43.1,-17.9,-53.7,-13.3C-55.8,-12.4,-57.8,-11.5,-59.9,-10.7C-62,-9.8,-64.1,-9,-66.2,-8.2C-68.4,-7.4,-70.5,-6.6,-72.7,-5.9C-74.9,-5.1,-77.1,-4.4,-79.3,-3.7C-81.5,-3,-83.7,-2.3,-85.9,-1.7C-88.1,-1,-90.4,-0.4,-92.6,0.2C-94.9,0.9,-97.2,1.5,-99.4,2C-101.6,2.6,-103.8,3.1,-106.3,3.7C-108.8,4.3,-111.7,4.9,-113.2,5.2C-114.7,5.5,-114.7,5.5,-114.7,5.5C-113.6,3.8,-118,6.8,-118,8.4C-118,9.9,-112.8,10.3,-114.7,11.2C-114.7,11.2,-114.7,11.2,-113.2,11.5C-111.7,11.8,-108.7,12.4,-106.1,12.9C-103.5,13.3,-101.3,13.7,-98.9,14.1C-96.6,14.5,-94.2,14.8,-91.8,15.2C-89.3,15.5,-86.9,15.8,-84.5,16.1C-82.1,16.4,-79.7,16.7,-77.2,16.9C-74.8,17.2,-72.3,17.4,-69.9,17.6C-67.4,17.8,-64.9,17.9,-62.4,18.1C-60,18.2,-57.5,18.3,-54.9,18.4C-52.4,18.4,-49.9,18.4,-47.4,18.4z"/><path stroke-linecap="round" transform="matrix(1,0,0,1,998.48,656.91)" stroke="#486aff" ed:parentid="218" fill="none" stroke-linejoin="round" id="221" ed:tosuperid="220" stroke-width="5.33333" d="M17.5,61.1L6.5,61.1C6.5,36.7,-11.5,-61.1,-17.5,-61.1"/><path stroke-linecap="round" transform="matrix(1,0,0,1,556.28,595.83)" stroke="#486aff" ed:parentid="220" fill="none" stroke-linejoin="round" id="223" ed:tosuperid="222" stroke-width="4" d="M17.5,0L6.5,0C6.5,0,-11.5,0,-17.5,0"/><path stroke-linecap="round" transform="matrix(1,0,0,1,325.06,587.09)" stroke="#486aff" ed:parentid="222" fill="none" stroke-linejoin="round" id="225" ed:tosuperid="224" stroke-width="3" d="M17.5,8.7L6.5,8.7C6.5,5.2,-11.5,-8.7,-17.6,-8.7"/><path stroke-linecap="round" transform="matrix(1,0,0,1,325.06,604.57)" stroke="#486aff" ed:parentid="222" fill="none" stroke-linejoin="round" id="227" ed:tosuperid="226" stroke-width="3" d="M6.5,-8.7C6.5,-5.2,-11.5,8.7,-17.6,8.7"/><path stroke-linecap="round" transform="matrix(1,0,0,1,998.48,707.51)" stroke="#486aff" ed:parentid="218" fill="none" stroke-linejoin="round" id="229" ed:tosuperid="228" stroke-width="5.33333" d="M6.5,10.5C6.5,6.3,-11.5,-10.5,-17.5,-10.5"/><path stroke-linecap="round" transform="matrix(1,0,0,1,803.39,673.88)" stroke="#486aff" ed:parentid="228" fill="none" stroke-linejoin="round" id="231" ed:tosuperid="230" stroke-width="4" d="M17.5,23.1L6.5,23.1C6.5,13.9,-11.5,-23.1,-17.5,-23.1"/><path stroke-linecap="round" transform="matrix(1,0,0,1,803.39,720.15)" stroke="#486aff" ed:parentid="228" fill="none" stroke-linejoin="round" id="233" ed:tosuperid="232" stroke-width="4" d="M6.5,-23.1C6.5,-13.9,-11.5,23.1,-17.5,23.1"/><path stroke-linecap="round" transform="matrix(1,0,0,1,516.17,715.74)" stroke="#486aff" ed:parentid="232" fill="none" stroke-linejoin="round" id="235" ed:tosuperid="234" stroke-width="3" d="M17.5,27.5L6.5,27.5C6.5,16.5,-11.5,-27.5,-17.5,-27.5"/><path stroke-linecap="round" transform="matrix(1,0,0,1,516.17,739.19)" stroke="#486aff" ed:parentid="232" fill="none" stroke-linejoin="round" id="237" ed:tosuperid="236" stroke-width="3" d="M6.5,4.1C6.5,2.5,-11.5,-4.1,-17.5,-4.1"/><path stroke-linecap="round" transform="matrix(1,0,0,1,349.55,735.11)" stroke="#486aff" ed:parentid="236" fill="none" stroke-linejoin="round" id="239" ed:tosuperid="238" stroke-width="2" d="M17.5,0L6.5,0C6.5,0,-11.5,0,-17.6,0"/><path stroke-linecap="round" transform="matrix(1,0,0,1,516.17,770.83)" stroke="#486aff" ed:parentid="232" fill="none" stroke-linejoin="round" id="241" ed:tosuperid="240" stroke-width="3" d="M6.5,-27.5C6.5,-16.5,-11.5,27.5,-17.5,27.5"/><path stroke-linecap="round" transform="matrix(1,0,0,1,301.55,790.2)" stroke="#486aff" ed:parentid="240" fill="none" stroke-linejoin="round" id="243" ed:tosuperid="242" stroke-width="2" d="M17.5,8.2L6.5,8.2C6.5,4.9,-11.5,-8.2,-17.6,-8.2"/><path stroke-linecap="round" transform="matrix(1,0,0,1,301.55,806.55)" stroke="#486aff" ed:parentid="240" fill="none" stroke-linejoin="round" id="245" ed:tosuperid="244" stroke-width="2" d="M6.5,-8.2C6.5,-4.9,-11.5,8.2,-17.6,8.2"/><path stroke-linecap="round" transform="matrix(1,0,0,1,998.48,779.08)" stroke="#486aff" ed:parentid="218" fill="none" stroke-linejoin="round" id="247" ed:tosuperid="246" stroke-width="5.33333" d="M6.5,-61.1C6.5,-36.7,-11.5,61.1,-17.5,61.1"/><path stroke-linecap="round" transform="matrix(1,0,0,1,739.39,840.16)" stroke="#486aff" ed:parentid="246" fill="none" stroke-linejoin="round" id="249" ed:tosuperid="248" stroke-width="4" d="M17.5,0L6.5,0C6.5,0,-11.5,0,-17.5,0"/><path stroke-linecap="round" transform="matrix(1,0,0,1,1311.82,552.01)" stroke="#4d49be" ed:parentid="101" fill="#4d49be" stroke-linejoin="round" id="251" ed:tosuperid="250" d="M24,97.9C25.5,109.5,34.4,115.8,43.2,114.3C52,112.8,58.4,103.8,55.9,92.5C55.3,90.1,54.8,87.8,54.3,85.4C53.7,83.1,53.2,80.7,52.6,78.4C52,76.1,51.5,73.7,50.9,71.4C50.3,69.1,49.6,66.8,49,64.4C48.4,62.1,47.7,59.8,47.1,57.5C46.4,55.2,45.8,52.9,45.1,50.6C44.4,48.3,43.7,46,43,43.8C42.3,41.5,41.5,39.2,40.8,36.9C40.1,34.7,39.3,32.4,38.5,30.1C37.8,27.9,37,25.6,36.2,23.4C35.4,21.1,34.6,18.9,33.8,16.6C33,14.4,32.2,12.1,31.3,9.9C30.5,7.7,29.6,5.4,28.7,3.2C27.9,1,27,-1.2,26.1,-3.4C25.2,-5.6,24.3,-7.8,23.3,-10C22.4,-12.2,21.5,-14.4,20.5,-16.6C19.6,-18.8,18.6,-21,17.6,-23.1C16.6,-25.3,15.6,-27.5,14.6,-29.6C13.6,-31.8,12.6,-34,11.5,-36.1C10.5,-38.3,9.4,-40.4,8.3,-42.5C7.3,-44.6,6.2,-46.8,5,-48.9C3.9,-51,2.8,-53.1,1.6,-55.2C0.5,-57.3,-0.7,-59.4,-1.9,-61.5C-3,-63.5,-4.3,-65.6,-5.5,-67.6C-6.7,-69.7,-8,-71.7,-9.2,-73.8C-10.5,-75.8,-11.8,-77.8,-13.1,-79.8C-14.4,-81.8,-15.7,-83.8,-17.1,-85.8C-18.5,-87.8,-19.8,-89.7,-21.2,-91.7C-22.7,-93.6,-24.1,-95.6,-25.6,-97.5C-27,-99.4,-28.5,-101.3,-30,-103.1C-31.5,-105,-33.1,-106.8,-34.7,-108.7C-36.3,-110.5,-37.9,-112.3,-39.5,-114C-41.2,-115.8,-42.8,-117.5,-44.6,-119.3C-46.3,-121,-48,-122.6,-49.8,-124.3C-51.6,-125.9,-53.4,-127.5,-55.3,-129C-57.2,-130.6,-59.1,-132.1,-61.1,-133.5C-63,-135,-65,-136.4,-67.1,-137.7C-69.1,-139,-71.2,-140.3,-73.4,-141.5C-75.5,-142.7,-77.7,-143.8,-79.9,-144.8C-82.1,-145.8,-84.4,-146.8,-86.7,-147.6C-89,-148.4,-91.4,-149.2,-93.7,-149.8C-96.1,-150.4,-98.5,-150.9,-100.9,-151.3C-103.4,-151.7,-105.9,-152,-108.2,-152.1C-110.5,-152.2,-112.6,-152.1,-114.7,-152.1C-116.7,-152.1,-118,-150.8,-118,-149.3C-118,-147.7,-116.7,-146.6,-114.7,-146.4C-112.8,-146.3,-110.9,-146.2,-108.8,-145.9C-106.7,-145.6,-104.4,-145.2,-102.3,-144.6C-100.1,-144.1,-98,-143.5,-95.9,-142.7C-93.8,-142,-91.8,-141.1,-89.7,-140.2C-87.7,-139.3,-85.8,-138.2,-83.8,-137.1C-81.9,-136,-80,-134.8,-78.2,-133.6C-76.3,-132.4,-74.5,-131,-72.8,-129.7C-71,-128.3,-69.3,-126.9,-67.6,-125.4C-65.9,-123.9,-64.3,-122.4,-62.7,-120.8C-61.1,-119.2,-59.6,-117.6,-58,-116C-56.5,-114.3,-55,-112.6,-53.6,-110.9C-52.1,-109.2,-50.7,-107.4,-49.3,-105.7C-47.9,-103.9,-46.6,-102.1,-45.2,-100.3C-43.9,-98.4,-42.6,-96.6,-41.3,-94.7C-40.1,-92.8,-38.8,-90.9,-37.6,-89C-36.4,-87.1,-35.2,-85.2,-34,-83.2C-32.9,-81.3,-31.7,-79.3,-30.6,-77.3C-29.5,-75.4,-28.4,-73.4,-27.3,-71.4C-26.2,-69.4,-25.2,-67.3,-24.1,-65.3C-23.1,-63.3,-22.1,-61.3,-21.1,-59.2C-20.1,-57.2,-19.1,-55.1,-18.2,-53C-17.2,-51,-16.3,-48.9,-15.3,-46.8C-14.4,-44.7,-13.5,-42.6,-12.6,-40.5C-11.8,-38.4,-10.9,-36.3,-10,-34.2C-9.2,-32,-8.3,-29.9,-7.5,-27.8C-6.7,-25.7,-5.9,-23.5,-5.1,-21.4C-4.3,-19.2,-3.6,-17.1,-2.8,-14.9C-2,-12.8,-1.3,-10.6,-0.6,-8.4C0.2,-6.3,0.9,-4.1,1.6,-1.9C2.3,0.2,3,2.4,3.7,4.6C4.3,6.8,5,9,5.6,11.2C6.3,13.4,6.9,15.6,7.5,17.8C8.2,20,8.8,22.2,9.4,24.4C9.9,26.6,10.5,28.8,11.1,31C11.7,33.2,12.2,35.4,12.8,37.6C13.3,39.9,13.8,42.1,14.3,44.3C14.8,46.5,15.3,48.7,15.8,51C16.3,53.2,16.8,55.4,17.3,57.7C17.7,59.9,18.2,62.1,18.6,64.4C19,66.6,19.4,68.8,19.9,71.1C20.3,73.3,20.6,75.5,21,77.8C21.4,80,21.8,82.3,22.1,84.5C22.5,86.7,22.8,89,23.1,91.2C23.4,93.5,23.7,95.7,24,97.9z"/><path stroke-linecap="round" transform="matrix(1,0,0,1,950.48,354.91)" stroke="#4d49be" ed:parentid="250" fill="none" stroke-linejoin="round" id="253" ed:tosuperid="252" stroke-width="5.33333" d="M17.5,47.8L6.5,47.8C6.5,28.7,-11.5,-47.8,-17.5,-47.8"/><path stroke-linecap="round" transform="matrix(1,0,0,1,950.48,377.11)" stroke="#4d49be" ed:parentid="250" fill="none" stroke-linejoin="round" id="255" ed:tosuperid="254" stroke-width="5.33333" d="M6.5,25.6C6.5,15.4,-11.5,-25.6,-17.5,-25.6"/><path stroke-linecap="round" transform="matrix(1,0,0,1,950.48,399.3)" stroke="#4d49be" ed:parentid="250" fill="none" stroke-linejoin="round" id="257" ed:tosuperid="256" stroke-width="5.33333" d="M6.5,3.4C6.5,2.1,-11.5,-3.4,-17.5,-3.4"/><path stroke-linecap="round" transform="matrix(1,0,0,1,950.48,421.5)" stroke="#4d49be" ed:parentid="250" fill="none" stroke-linejoin="round" id="259" ed:tosuperid="258" stroke-width="5.33333" d="M6.5,-18.8C6.5,-11.3,-11.5,18.8,-17.5,18.8"/><path stroke-linecap="round" transform="matrix(1,0,0,1,950.48,450.58)" stroke="#4d49be" ed:parentid="250" fill="none" stroke-linejoin="round" id="261" ed:tosuperid="260" stroke-width="5.33333" d="M6.5,-47.8C6.5,-28.7,-11.5,47.8,-17.6,47.8"/><g ed:height="108.1111111111111" transform="matrix(1,0,0,1,1260.17,647.23)" ed:topictype="mainidea" ed:layout="map" id="101" ed:width="332.6"><path stroke="#5c9dff" fill="#5c9dff" stroke-linejoin="round" stroke-width="8" d="M54.1,0L278.5,0C308.4,0,332.6,24.2,332.6,54.1C332.6,83.9,308.4,108.1,278.5,108.1L54.1,108.1C24.2,108.1,0,83.9,0,54.1C0,24.2,24.2,0,54.1,0z"/><text class="st1"><tspan y="46.728" textLength="108" x="113" style="white-space:pre">文森说书</tspan><tspan y="82.283" textLength="243" x="46" style="white-space:pre">《大脑喜欢这样学》</tspan></text></g><g ed:height="53.66666650772095" transform="matrix(1,0,0,1,1655.77,245.79)" ed:parentid="101" ed:layout="rightmap" id="102" ed:width="253.14666639328"><path stroke="#f9423a" fill="none" stroke-linejoin="round" stroke-width="6.66667" d="M26.8,0L226.3,0C241.1,0,253.1,12,253.1,26.8C253.1,41.7,241.1,53.7,226.3,53.7L26.8,53.7C12,53.7,0,41.7,0,26.8C0,12,12,0,26.8,0z"/><text class="st2"><tspan y="36.394" textLength="190" x="31" style="white-space:pre">1.大脑的工作模式</tspan></text></g><g ed:height="37.88888904783461" transform="matrix(1,0,0,1,1944.02,203.75)" ed:parentid="102" ed:layout="rightmap" id="104" ed:width="159.9866669400533"><path stroke="#f9423a" fill="none" stroke-linejoin="round" stroke-width="5.33333" d="M18.9,0L141,0C151.5,0,160,8.5,160,18.9C160,29.4,151.5,37.9,141,37.9L18.9,37.9C8.5,37.9,0,29.4,0,18.9C0,8.5,8.5,0,18.9,0z"/><text class="st3"><tspan y="27.617" textLength="118" x="18" style="white-space:pre">1.1.专注模式</tspan></text></g><g ed:height="33.44444444444444" transform="matrix(1,0,0,1,2139.11,186)" ed:parentid="104" ed:layout="rightmap" id="106" ed:width="420.12"><path stroke="#f9423a" fill="none" stroke-linejoin="round" stroke-width="4" d="M16.7,0L403.4,0C412.6,0,420.1,7.5,420.1,16.7C420.1,26,412.6,33.4,403.4,33.4L16.7,33.4C7.5,33.4,0,26,0,16.7C0,7.5,7.5,0,16.7,0z"/><text class="st4"><tspan y="24.283" textLength="390" x="18" style="white-space:pre">1.1.1.吸收输入的学习材料，寻找脑内相关知识</tspan></text></g><g ed:height="33.44444444444444" transform="matrix(1,0,0,1,2139.11,225.94)" ed:parentid="104" ed:layout="rightmap" id="108" ed:width="196.12"><path stroke="#f9423a" fill="none" stroke-linejoin="round" stroke-width="4" d="M16.7,0L179.4,0C188.6,0,196.1,7.5,196.1,16.7C196.1,26,188.6,33.4,179.4,33.4L16.7,33.4C7.5,33.4,0,26,0,16.7C0,7.5,7.5,0,16.7,0z"/><text class="st4"><tspan y="24.283" textLength="162" x="18" style="white-space:pre">1.1.2.使用工作记忆</tspan></text></g><g ed:height="37.88888904783461" transform="matrix(1,0,0,1,1944.02,303.61)" ed:parentid="102" ed:layout="rightmap" id="110" ed:width="159.9866669400533"><path stroke="#f9423a" fill="none" stroke-linejoin="round" stroke-width="5.33333" d="M18.9,0L141,0C151.5,0,160,8.5,160,18.9C160,29.4,151.5,37.9,141,37.9L18.9,37.9C8.5,37.9,0,29.4,0,18.9C0,8.5,8.5,0,18.9,0z"/><text class="st3"><tspan y="27.617" textLength="118" x="18" style="white-space:pre">1.2.发散模式</tspan></text></g><g ed:height="33.44444444444444" transform="matrix(1,0,0,1,2139.11,265.89)" ed:parentid="110" ed:layout="rightmap" id="112" ed:width="196.12"><path stroke="#f9423a" fill="none" stroke-linejoin="round" stroke-width="4" d="M16.7,0L179.4,0C188.6,0,196.1,7.5,196.1,16.7C196.1,26,188.6,33.4,179.4,33.4L16.7,33.4C7.5,33.4,0,26,0,16.7C0,7.5,7.5,0,16.7,0z"/><text class="st4"><tspan y="24.283" textLength="162" x="18" style="white-space:pre">1.2.1.运用学习材料</tspan></text></g><g ed:height="33.44444444444444" transform="matrix(1,0,0,1,2139.11,305.83)" ed:parentid="110" ed:layout="rightmap" id="114" ed:width="326.7866666666666"><path stroke="#f9423a" fill="none" stroke-linejoin="round" stroke-width="4" d="M16.7,0L310.1,0C319.3,0,326.8,7.5,326.8,16.7C326.8,26,319.3,33.4,310.1,33.4L16.7,33.4C7.5,33.4,0,26,0,16.7C0,7.5,7.5,0,16.7,0z"/><text class="st4"><tspan y="24.283" textLength="295" x="18" style="white-space:pre">1.2.2.工作记忆压缩及转换长久记忆</tspan></text></g><g ed:height="33.44444444444444" transform="matrix(1,0,0,1,2139.11,345.78)" ed:parentid="110" ed:layout="rightmap" id="116" ed:width="308.12"><path stroke="#f9423a" fill="none" stroke-linejoin="round" stroke-width="4" d="M16.7,0L291.4,0C300.6,0,308.1,7.5,308.1,16.7C308.1,26,300.6,33.4,291.4,33.4L16.7,33.4C7.5,33.4,0,26,0,16.7C0,7.5,7.5,0,16.7,0z"/><text class="st4"><tspan y="24.283" textLength="276" x="18" style="white-space:pre">1.2.3.通过适度的休息和放松获得</tspan></text></g><g ed:height="53.66666650772095" transform="matrix(1,0,0,1,1655.77,528.17)" ed:parentid="101" ed:layout="rightmap" id="118" ed:width="253.14666639328"><path stroke="#f6a04d" fill="none" stroke-linejoin="round" stroke-width="6.66667" d="M26.8,0L226.3,0C241.1,0,253.1,12,253.1,26.8C253.1,41.7,241.1,53.7,226.3,53.7L26.8,53.7C12,53.7,0,41.7,0,26.8C0,12,12,0,26.8,0z"/><text class="st5"><tspan y="36.394" textLength="190" x="31" style="white-space:pre">2.大脑的记忆区域</tspan></text></g><g ed:height="37.88888904783461" transform="matrix(1,0,0,1,1944.02,472.4)" ed:parentid="118" ed:layout="rightmap" id="120" ed:width="159.9866669400533"><path stroke="#f6a04d" fill="none" stroke-linejoin="round" stroke-width="5.33333" d="M18.9,0L141,0C151.5,0,160,8.5,160,18.9C160,29.4,151.5,37.9,141,37.9L18.9,37.9C8.5,37.9,0,29.4,0,18.9C0,8.5,8.5,0,18.9,0z"/><text class="st6"><tspan y="27.617" textLength="118" x="18" style="white-space:pre">2.1.工作记忆</tspan></text></g><g ed:height="33.44444444444444" transform="matrix(1,0,0,1,2139.11,427.19)" ed:parentid="120" ed:layout="rightmap" id="122" ed:width="121.4533333333333"><path stroke="#f6a04d" fill="none" stroke-linejoin="round" stroke-width="4" d="M16.7,0L104.7,0C114,0,121.5,7.5,121.5,16.7C121.5,26,114,33.4,104.7,33.4L16.7,33.4C7.5,33.4,0,26,0,16.7C0,7.5,7.5,0,16.7,0z"/><text class="st7"><tspan y="24.283" textLength="86" x="18" style="white-space:pre">2.1.1.篮子</tspan></text></g><g ed:height="28.44444444444444" transform="matrix(1,0,0,1,2295.66,412.22)" ed:parentid="122" ed:layout="rightmap" id="124" ed:width="147.52"><path stroke="#f6a04d" fill="none" stroke-linejoin="round" stroke-width="3" d="M14.2,0L133.3,0C141.2,0,147.5,6.4,147.5,14.2C147.5,22.1,141.2,28.4,133.3,28.4L14.2,28.4C6.4,28.4,0,22.1,0,14.2C0,6.4,6.4,0,14.2,0z"/><text class="st8"><tspan y="20.672" textLength="116" x="13" style="white-space:pre">2.1.1.1.学习资料</tspan></text></g><g ed:height="28.44444444444444" transform="matrix(1,0,0,1,2295.66,447.17)" ed:parentid="122" ed:layout="rightmap" id="126" ed:width="163.52"><path stroke="#f6a04d" fill="none" stroke-linejoin="round" stroke-width="3" d="M14.2,0L149.3,0C157.2,0,163.5,6.4,163.5,14.2C163.5,22.1,157.2,28.4,149.3,28.4L14.2,28.4C6.4,28.4,0,22.1,0,14.2C0,6.4,6.4,0,14.2,0z"/><text class="st8"><tspan y="20.672" textLength="132" x="13" style="white-space:pre">2.1.1.2.思考的问题</tspan></text></g><g ed:height="33.44444444444444" transform="matrix(1,0,0,1,2139.11,482.11)" ed:parentid="120" ed:layout="rightmap" id="128" ed:width="140.12"><path stroke="#f6a04d" fill="none" stroke-linejoin="round" stroke-width="4" d="M16.7,0L123.4,0C132.6,0,140.1,7.5,140.1,16.7C140.1,26,132.6,33.4,123.4,33.4L16.7,33.4C7.5,33.4,0,26,0,16.7C0,7.5,7.5,0,16.7,0z"/><text class="st7"><tspan y="24.283" textLength="105" x="18" style="white-space:pre">2.1.2.容量小</tspan></text></g><g ed:height="33.44444444444444" transform="matrix(1,0,0,1,2139.11,522.06)" ed:parentid="120" ed:layout="rightmap" id="130" ed:width="140.12"><path stroke="#f6a04d" fill="none" stroke-linejoin="round" stroke-width="4" d="M16.7,0L123.4,0C132.6,0,140.1,7.5,140.1,16.7C140.1,26,132.6,33.4,123.4,33.4L16.7,33.4C7.5,33.4,0,26,0,16.7C0,7.5,7.5,0,16.7,0z"/><text class="st7"><tspan y="24.283" textLength="105" x="18" style="white-space:pre">2.1.3.易丢失</tspan></text></g><g ed:height="37.88888904783461" transform="matrix(1,0,0,1,1944.02,599.72)" ed:parentid="118" ed:layout="rightmap" id="132" ed:width="159.9866669400533"><path stroke="#f6a04d" fill="none" stroke-linejoin="round" stroke-width="5.33333" d="M18.9,0L141,0C151.5,0,160,8.5,160,18.9C160,29.4,151.5,37.9,141,37.9L18.9,37.9C8.5,37.9,0,29.4,0,18.9C0,8.5,8.5,0,18.9,0z"/><text class="st6"><tspan y="27.617" textLength="118" x="18" style="white-space:pre">2.2.长久记忆</tspan></text></g><g ed:height="33.44444444444444" transform="matrix(1,0,0,1,2139.11,562)" ed:parentid="132" ed:layout="rightmap" id="134" ed:width="121.4533333333333"><path stroke="#f6a04d" fill="none" stroke-linejoin="round" stroke-width="4" d="M16.7,0L104.7,0C114,0,121.5,7.5,121.5,16.7C121.5,26,114,33.4,104.7,33.4L16.7,33.4C7.5,33.4,0,26,0,16.7C0,7.5,7.5,0,16.7,0z"/><text class="st7"><tspan y="24.283" textLength="86" x="18" style="white-space:pre">2.2.1.仓库</tspan></text></g><g ed:height="33.44444444444444" transform="matrix(1,0,0,1,2139.11,601.94)" ed:parentid="132" ed:layout="rightmap" id="136" ed:width="140.12"><path stroke="#f6a04d" fill="none" stroke-linejoin="round" stroke-width="4" d="M16.7,0L123.4,0C132.6,0,140.1,7.5,140.1,16.7C140.1,26,132.6,33.4,123.4,33.4L16.7,33.4C7.5,33.4,0,26,0,16.7C0,7.5,7.5,0,16.7,0z"/><text class="st7"><tspan y="24.283" textLength="105" x="18" style="white-space:pre">2.2.2.容量大</tspan></text></g><g ed:height="33.44444444444444" transform="matrix(1,0,0,1,2139.11,641.89)" ed:parentid="132" ed:layout="rightmap" id="138" ed:width="158.7866666666667"><path stroke="#f6a04d" fill="none" stroke-linejoin="round" stroke-width="4" d="M16.7,0L142.1,0C151.3,0,158.8,7.5,158.8,16.7C158.8,26,151.3,33.4,142.1,33.4L16.7,33.4C7.5,33.4,0,26,0,16.7C0,7.5,7.5,0,16.7,0z"/><text class="st7"><tspan y="24.283" textLength="124" x="18" style="white-space:pre">2.2.3.不易写入</tspan></text></g><g ed:height="53.66666650772095" transform="matrix(1,0,0,1,1655.77,1103.1)" ed:parentid="101" ed:layout="rightmap" id="140" ed:width="229.14666639328"><path stroke="#f3d321" fill="none" stroke-linejoin="round" stroke-width="6.66667" d="M26.8,0L202.3,0C217.1,0,229.1,12,229.1,26.8C229.1,41.7,217.1,53.7,202.3,53.7L26.8,53.7C12,53.7,0,41.7,0,26.8C0,12,12,0,26.8,0z"/><text class="st9"><tspan y="36.394" textLength="166" x="31" style="white-space:pre">3.好的学习方法</tspan></text></g><g ed:height="37.88888904783461" transform="matrix(1,0,0,1,1920.02,764.76)" ed:parentid="140" ed:layout="rightmap" id="142" ed:width="356.3200002733867"><path stroke="#f3d321" fill="none" stroke-linejoin="round" stroke-width="5.33333" d="M18.9,0L337.4,0C347.8,0,356.3,8.5,356.3,18.9C356.3,29.4,347.8,37.9,337.4,37.9L18.9,37.9C8.5,37.9,0,29.4,0,18.9C0,8.5,8.5,0,18.9,0z"/><text class="st10"><tspan y="27.617" textLength="311" x="19" style="white-space:pre">1.工作记忆放满后改做轻松的事情</tspan></text></g><g ed:height="33.44444444444444" transform="matrix(1,0,0,1,2311.44,723.31)" ed:parentid="142" ed:layout="rightmap" id="144" ed:width="236.12"><path stroke="#f3d321" fill="none" stroke-linejoin="round" stroke-width="4" d="M16.7,0L219.4,0C228.6,0,236.1,7.5,236.1,16.7C236.1,26,228.6,33.4,219.4,33.4L16.7,33.4C7.5,33.4,0,26,0,16.7C0,7.5,7.5,0,16.7,0z"/><text class="st11"><tspan y="24.283" textLength="203" x="17" style="white-space:pre">1.1.工作记忆放满的特征</tspan></text></g><g ed:height="28.44444444444444" transform="matrix(1,0,0,1,2582.66,708.33)" ed:parentid="144" ed:layout="rightmap" id="146" ed:width="134.52"><path stroke="#f3d321" fill="none" stroke-linejoin="round" stroke-width="3" d="M14.2,0L120.3,0C128.2,0,134.5,6.4,134.5,14.2C134.5,22.1,128.2,28.4,120.3,28.4L14.2,28.4C6.4,28.4,0,22.1,0,14.2C0,6.4,6.4,0,14.2,0z"/><text class="st12"><tspan y="20.672" textLength="103" x="14" style="white-space:pre">1.1.1.忘东忘西</tspan></text></g><g ed:height="28.44444444444444" transform="matrix(1,0,0,1,2582.66,743.28)" ed:parentid="144" ed:layout="rightmap" id="148" ed:width="246.52"><path stroke="#f3d321" fill="none" stroke-linejoin="round" stroke-width="3" d="M14.2,0L232.3,0C240.2,0,246.5,6.4,246.5,14.2C246.5,22.1,240.2,28.4,232.3,28.4L14.2,28.4C6.4,28.4,0,22.1,0,14.2C0,6.4,6.4,0,14.2,0z"/><text class="st12"><tspan y="20.672" textLength="215" x="14" style="white-space:pre">1.1.2.无法处理当前复杂的事情</tspan></text></g><g ed:height="33.44444444444444" transform="matrix(1,0,0,1,2311.44,810.67)" ed:parentid="142" ed:layout="rightmap" id="150" ed:width="142.7866666666667"><path stroke="#f3d321" fill="none" stroke-linejoin="round" stroke-width="4" d="M16.7,0L126.1,0C135.3,0,142.8,7.5,142.8,16.7C142.8,26,135.3,33.4,126.1,33.4L16.7,33.4C7.5,33.4,0,26,0,16.7C0,7.5,7.5,0,16.7,0z"/><text class="st11"><tspan y="24.283" textLength="108" x="17" style="white-space:pre">1.2.放松方式</tspan></text></g><g ed:height="28.44444444444444" transform="matrix(1,0,0,1,2489.33,778.22)" ed:parentid="150" ed:layout="rightmap" id="152" ed:width="102.52"><path stroke="#f3d321" fill="none" stroke-linejoin="round" stroke-width="3" d="M14.2,0L88.3,0C96.2,0,102.5,6.4,102.5,14.2C102.5,22.1,96.2,28.4,88.3,28.4L14.2,28.4C6.4,28.4,0,22.1,0,14.2C0,6.4,6.4,0,14.2,0z"/><text class="st12"><tspan y="20.672" textLength="71" x="14" style="white-space:pre">1.2.1.运动</tspan></text></g><g ed:height="28.44444444444444" transform="matrix(1,0,0,1,2489.33,813.17)" ed:parentid="150" ed:layout="rightmap" id="154" ed:width="102.52"><path stroke="#f3d321" fill="none" stroke-linejoin="round" stroke-width="3" d="M14.2,0L88.3,0C96.2,0,102.5,6.4,102.5,14.2C102.5,22.1,96.2,28.4,88.3,28.4L14.2,28.4C6.4,28.4,0,22.1,0,14.2C0,6.4,6.4,0,14.2,0z"/><text class="st12"><tspan y="20.672" textLength="71" x="14" style="white-space:pre">1.2.2.睡觉</tspan></text></g><g ed:height="28.44444444444444" transform="matrix(1,0,0,1,2489.33,848.11)" ed:parentid="150" ed:layout="rightmap" id="156" ed:width="102.9644444444444"><path stroke="#f3d321" fill="none" stroke-linejoin="round" stroke-width="3" d="M14.2,0L88.7,0C96.6,0,103,6.4,103,14.2C103,22.1,96.6,28.4,88.7,28.4L14.2,28.4C6.4,28.4,0,22.1,0,14.2C0,6.4,6.4,0,14.2,0z"/><text class="st12"><tspan y="20.672" textLength="71" x="14" style="white-space:pre">1.2.3.听歌</tspan></text></g><g ed:height="37.88888904783461" transform="matrix(1,0,0,1,1920.02,1008.14)" ed:parentid="140" ed:layout="rightmap" id="158" ed:width="164.3200002733867"><path stroke="#f3d321" fill="none" stroke-linejoin="round" stroke-width="5.33333" d="M18.9,0L145.4,0C155.8,0,164.3,8.5,164.3,18.9C164.3,29.4,155.8,37.9,145.4,37.9L18.9,37.9C8.5,37.9,0,29.4,0,18.9C0,8.5,8.5,0,18.9,0z"/><text class="st10"><tspan y="27.617" textLength="122" x="19" style="white-space:pre">2.检索式学习</tspan></text></g><g ed:height="33.44444444444444" transform="matrix(1,0,0,1,2119.44,883.06)" ed:parentid="158" ed:layout="rightmap" id="160" ed:width="105.4533333333333"><path stroke="#f3d321" fill="none" stroke-linejoin="round" stroke-width="4" d="M16.7,0L88.7,0C98,0,105.5,7.5,105.5,16.7C105.5,26,98,33.4,88.7,33.4L16.7,33.4C7.5,33.4,0,26,0,16.7C0,7.5,7.5,0,16.7,0z"/><text class="st11"><tspan y="24.283" textLength="70" x="17" style="white-space:pre">2.1.回忆</tspan></text></g><g ed:height="33.44444444444444" transform="matrix(1,0,0,1,2119.44,923)" ed:parentid="158" ed:layout="rightmap" id="162" ed:width="124.12"><path stroke="#f3d321" fill="none" stroke-linejoin="round" stroke-width="4" d="M16.7,0L107.4,0C116.6,0,124.1,7.5,124.1,16.7C124.1,26,116.6,33.4,107.4,33.4L16.7,33.4C7.5,33.4,0,26,0,16.7C0,7.5,7.5,0,16.7,0z"/><text class="st11"><tspan y="24.283" textLength="89" x="17" style="white-space:pre">2.2.抽记卡</tspan></text></g><g ed:height="28.44444444444444" transform="matrix(1,0,0,1,2278.66,925.5)" ed:parentid="162" ed:layout="rightmap" id="164" ed:width="166.52"><path stroke="#f3d321" fill="none" stroke-linejoin="round" stroke-width="3" d="M14.2,0L152.3,0C160.2,0,166.5,6.4,166.5,14.2C166.5,22.1,160.2,28.4,152.3,28.4L14.2,28.4C6.4,28.4,0,22.1,0,14.2C0,6.4,6.4,0,14.2,0z"/><text class="st12"><tspan y="20.672" textLength="135" x="14" style="white-space:pre">2.2.1.刚学会时制作</tspan></text></g><g ed:height="33.44444444444444" transform="matrix(1,0,0,1,2119.44,1030.33)" ed:parentid="158" ed:layout="rightmap" id="166" ed:width="142.7866666666667"><path stroke="#f3d321" fill="none" stroke-linejoin="round" stroke-width="4" d="M16.7,0L126.1,0C135.3,0,142.8,7.5,142.8,16.7C142.8,26,135.3,33.4,126.1,33.4L16.7,33.4C7.5,33.4,0,26,0,16.7C0,7.5,7.5,0,16.7,0z"/><text class="st11"><tspan y="24.283" textLength="108" x="17" style="white-space:pre">2.3.时间间隔</tspan></text></g><g ed:height="28.44444444444444" transform="matrix(1,0,0,1,2297.33,962.94)" ed:parentid="166" ed:layout="rightmap" id="168" ed:width="166.52"><path stroke="#f3d321" fill="none" stroke-linejoin="round" stroke-width="3" d="M14.2,0L152.3,0C160.2,0,166.5,6.4,166.5,14.2C166.5,22.1,160.2,28.4,152.3,28.4L14.2,28.4C6.4,28.4,0,22.1,0,14.2C0,6.4,6.4,0,14.2,0z"/><text class="st12"><tspan y="20.672" textLength="135" x="14" style="white-space:pre">2.3.1.当日睡前一次</tspan></text></g><g ed:height="28.44444444444444" transform="matrix(1,0,0,1,2297.33,997.89)" ed:parentid="166" ed:layout="rightmap" id="170" ed:width="182.52"><path stroke="#f3d321" fill="none" stroke-linejoin="round" stroke-width="3" d="M14.2,0L168.3,0C176.2,0,182.5,6.4,182.5,14.2C182.5,22.1,176.2,28.4,168.3,28.4L14.2,28.4C6.4,28.4,0,22.1,0,14.2C0,6.4,6.4,0,14.2,0z"/><text class="st12"><tspan y="20.672" textLength="151" x="14" style="white-space:pre">2.3.2.第二天早起一次</tspan></text></g><g ed:height="28.44444444444444" transform="matrix(1,0,0,1,2297.33,1032.83)" ed:parentid="166" ed:layout="rightmap" id="172" ed:width="198.52"><path stroke="#f3d321" fill="none" stroke-linejoin="round" stroke-width="3" d="M14.2,0L184.3,0C192.2,0,198.5,6.4,198.5,14.2C198.5,22.1,192.2,28.4,184.3,28.4L14.2,28.4C6.4,28.4,0,22.1,0,14.2C0,6.4,6.4,0,14.2,0z"/><text class="st12"><tspan y="20.672" textLength="167" x="14" style="white-space:pre">2.3.3.逐步拉长复习间隔</tspan></text></g><g ed:height="28.44444444444444" transform="matrix(1,0,0,1,2297.33,1067.78)" ed:parentid="166" ed:layout="rightmap" id="174" ed:width="211.8533333333333"><path stroke="#f3d321" fill="none" stroke-linejoin="round" stroke-width="3" d="M14.2,0L197.6,0C205.5,0,211.9,6.4,211.9,14.2C211.9,22.1,205.5,28.4,197.6,28.4L14.2,28.4C6.4,28.4,0,22.1,0,14.2C0,6.4,6.4,0,14.2,0z"/><text class="st12"><tspan y="20.672" textLength="179" x="14" style="white-space:pre">2.3.4.天——>周——>月</tspan></text></g><g ed:height="28.44444444444444" transform="matrix(1,0,0,1,2297.33,1102.72)" ed:parentid="166" ed:layout="rightmap" id="176" ed:width="262.52"><path stroke="#f3d321" fill="none" stroke-linejoin="round" stroke-width="3" d="M14.2,0L248.3,0C256.2,0,262.5,6.4,262.5,14.2C262.5,22.1,256.2,28.4,248.3,28.4L14.2,28.4C6.4,28.4,0,22.1,0,14.2C0,6.4,6.4,0,14.2,0z"/><text class="st12"><tspan y="20.672" textLength="231" x="14" style="white-space:pre">2.3.5.将提取记忆的过程变成直觉</tspan></text></g><g ed:height="33.44444444444444" transform="matrix(1,0,0,1,2119.44,1137.67)" ed:parentid="158" ed:layout="rightmap" id="178" ed:width="142.7866666666667"><path stroke="#f3d321" fill="none" stroke-linejoin="round" stroke-width="4" d="M16.7,0L126.1,0C135.3,0,142.8,7.5,142.8,16.7C142.8,26,135.3,33.4,126.1,33.4L16.7,33.4C7.5,33.4,0,26,0,16.7C0,7.5,7.5,0,16.7,0z"/><text class="st11"><tspan y="24.283" textLength="108" x="17" style="white-space:pre">2.4.穿插主题</tspan></text></g><g ed:height="37.88888904783461" transform="matrix(1,0,0,1,1920.02,1235.31)" ed:parentid="140" ed:layout="rightmap" id="180" ed:width="121.65333360672"><path stroke="#f3d321" fill="none" stroke-linejoin="round" stroke-width="5.33333" d="M18.9,0L102.7,0C113.2,0,121.7,8.5,121.7,18.9C121.7,29.4,113.2,37.9,102.7,37.9L18.9,37.9C8.5,37.9,0,29.4,0,18.9C0,8.5,8.5,0,18.9,0z"/><text class="st10"><tspan y="27.617" textLength="80" x="19" style="white-space:pre">3.番茄钟</tspan></text></g><g ed:height="33.44444444444444" transform="matrix(1,0,0,1,2076.77,1177.61)" ed:parentid="180" ed:layout="rightmap" id="182" ed:width="142.7866666666667"><path stroke="#f3d321" fill="none" stroke-linejoin="round" stroke-width="4" d="M16.7,0L126.1,0C135.3,0,142.8,7.5,142.8,16.7C142.8,26,135.3,33.4,126.1,33.4L16.7,33.4C7.5,33.4,0,26,0,16.7C0,7.5,7.5,0,16.7,0z"/><text class="st11"><tspan y="24.283" textLength="108" x="17" style="white-space:pre">3.1.对抗拖延</tspan></text></g><g ed:height="33.44444444444444" transform="matrix(1,0,0,1,2076.77,1217.56)" ed:parentid="180" ed:layout="rightmap" id="184" ed:width="105.4533333333333"><path stroke="#f3d321" fill="none" stroke-linejoin="round" stroke-width="4" d="M16.7,0L88.7,0C98,0,105.5,7.5,105.5,16.7C105.5,26,98,33.4,88.7,33.4L16.7,33.4C7.5,33.4,0,26,0,16.7C0,7.5,7.5,0,16.7,0z"/><text class="st11"><tspan y="24.283" textLength="70" x="17" style="white-space:pre">3.2.专注</tspan></text></g><g ed:height="33.44444444444444" transform="matrix(1,0,0,1,2076.77,1257.5)" ed:parentid="180" ed:layout="rightmap" id="186" ed:width="254.7866666666666"><path stroke="#f3d321" fill="none" stroke-linejoin="round" stroke-width="4" d="M16.7,0L238.1,0C247.3,0,254.8,7.5,254.8,16.7C254.8,26,247.3,33.4,238.1,33.4L16.7,33.4C7.5,33.4,0,26,0,16.7C0,7.5,7.5,0,16.7,0z"/><text class="st11"><tspan y="24.283" textLength="222" x="17" style="white-space:pre">3.3.大目标拆分简单小任务</tspan></text></g><g ed:height="33.44444444444444" transform="matrix(1,0,0,1,2076.77,1297.44)" ed:parentid="180" ed:layout="rightmap" id="188" ed:width="180.12"><path stroke="#f3d321" fill="none" stroke-linejoin="round" stroke-width="4" d="M16.7,0L163.4,0C172.6,0,180.1,7.5,180.1,16.7C180.1,26,172.6,33.4,163.4,33.4L16.7,33.4C7.5,33.4,0,26,0,16.7C0,7.5,7.5,0,16.7,0z"/><text class="st11"><tspan y="24.283" textLength="146" x="17" style="white-space:pre">3.4.降低心里抵触</tspan></text></g><g ed:height="37.88888904783461" transform="matrix(1,0,0,1,1920.02,1375.11)" ed:parentid="140" ed:layout="rightmap" id="190" ed:width="249.65333360672"><path stroke="#f3d321" fill="none" stroke-linejoin="round" stroke-width="5.33333" d="M18.9,0L230.7,0C241.2,0,249.7,8.5,249.7,18.9C249.7,29.4,241.2,37.9,230.7,37.9L18.9,37.9C8.5,37.9,0,29.4,0,18.9C0,8.5,8.5,0,18.9,0z"/><text class="st10"><tspan y="27.617" textLength="206" x="19" style="white-space:pre">4.先看一个问题再去玩</tspan></text></g><g ed:height="33.44444444444444" transform="matrix(1,0,0,1,2204.77,1337.39)" ed:parentid="190" ed:layout="rightmap" id="192" ed:width="180.12"><path stroke="#f3d321" fill="none" stroke-linejoin="round" stroke-width="4" d="M16.7,0L163.4,0C172.6,0,180.1,7.5,180.1,16.7C180.1,26,172.6,33.4,163.4,33.4L16.7,33.4C7.5,33.4,0,26,0,16.7C0,7.5,7.5,0,16.7,0z"/><text class="st11"><tspan y="24.283" textLength="146" x="17" style="white-space:pre">4.1.利用发散模式</tspan></text></g><g ed:height="33.44444444444444" transform="matrix(1,0,0,1,2204.77,1377.33)" ed:parentid="190" ed:layout="rightmap" id="194" ed:width="329.4533333333333"><path stroke="#f3d321" fill="none" stroke-linejoin="round" stroke-width="4" d="M16.7,0L312.7,0C322,0,329.5,7.5,329.5,16.7C329.5,26,322,33.4,312.7,33.4L16.7,33.4C7.5,33.4,0,26,0,16.7C0,7.5,7.5,0,16.7,0z"/><text class="st11"><tspan y="24.283" textLength="298" x="17" style="white-space:pre">4.2.为下次做时带来降低难度的可能</tspan></text></g><g ed:height="33.44444444444444" transform="matrix(1,0,0,1,2204.77,1417.28)" ed:parentid="190" ed:layout="rightmap" id="196" ed:width="329.4533333333333"><path stroke="#f3d321" fill="none" stroke-linejoin="round" stroke-width="4" d="M16.7,0L312.7,0C322,0,329.5,7.5,329.5,16.7C329.5,26,322,33.4,312.7,33.4L16.7,33.4C7.5,33.4,0,26,0,16.7C0,7.5,7.5,0,16.7,0z"/><text class="st11"><tspan y="24.283" textLength="298" x="17" style="white-space:pre">4.3.在下次做时创造正向激励的可能</tspan></text></g><g ed:height="37.88888904783461" transform="matrix(1,0,0,1,1920.02,1457.22)" ed:parentid="140" ed:layout="rightmap" id="198" ed:width="249.65333360672"><path stroke="#f3d321" fill="none" stroke-linejoin="round" stroke-width="5.33333" d="M18.9,0L230.7,0C241.2,0,249.7,8.5,249.7,18.9C249.7,29.4,241.2,37.9,230.7,37.9L18.9,37.9C8.5,37.9,0,29.4,0,18.9C0,8.5,8.5,0,18.9,0z"/><text class="st10"><tspan y="27.617" textLength="206" x="19" style="white-space:pre">5.在其他地方列出重点</tspan></text></g><g ed:height="53.66666650772095" transform="matrix(1,0,0,1,968.03,972.98)" ed:parentid="101" ed:layout="leftmap" id="200" ed:width="229.14666639328"><path stroke="#00bc7b" fill="none" stroke-linejoin="round" stroke-width="6.66667" d="M26.8,0L202.3,0C217.1,0,229.1,12,229.1,26.8C229.1,41.7,217.1,53.7,202.3,53.7L26.8,53.7C12,53.7,0,41.7,0,26.8C0,12,12,0,26.8,0z"/><text class="st13"><tspan y="36.394" textLength="166" x="31" style="white-space:pre">4.坏的学习方法</tspan></text></g><g ed:height="37.88888904783461" transform="matrix(1,0,0,1,708.94,909.86)" ed:parentid="200" ed:layout="leftmap" id="202" ed:width="223.9866669400533"><path stroke="#00bc7b" fill="none" stroke-linejoin="round" stroke-width="5.33333" d="M18.9,0L205,0C215.5,0,224,8.5,224,18.9C224,29.4,215.5,37.9,205,37.9L18.9,37.9C8.5,37.9,0,29.4,0,18.9C0,8.5,8.5,0,18.9,0z"/><text class="st14"><tspan y="27.617" textLength="181" x="18" style="white-space:pre">4.1.反复阅读式复习</tspan></text></g><g ed:height="33.44444444444444" transform="matrix(1,0,0,1,459.05,892.11)" ed:parentid="202" ed:layout="leftmap" id="204" ed:width="214.7866666666667"><path stroke="#00bc7b" fill="none" stroke-linejoin="round" stroke-width="4" d="M16.7,0L198.1,0C207.3,0,214.8,7.5,214.8,16.7C214.8,26,207.3,33.4,198.1,33.4L16.7,33.4C7.5,33.4,0,26,0,16.7C0,7.5,7.5,0,16.7,0z"/><text class="st15"><tspan y="24.283" textLength="181" x="18" style="white-space:pre">4.1.1.看到题目不回想</tspan></text></g><g ed:height="33.44444444444444" transform="matrix(1,0,0,1,496.39,932.05)" ed:parentid="202" ed:layout="leftmap" id="206" ed:width="177.4533333333333"><path stroke="#00bc7b" fill="none" stroke-linejoin="round" stroke-width="4" d="M16.7,0L160.7,0C170,0,177.5,7.5,177.5,16.7C177.5,26,170,33.4,160.7,33.4L16.7,33.4C7.5,33.4,0,26,0,16.7C0,7.5,7.5,0,16.7,0z"/><text class="st15"><tspan y="24.283" textLength="143" x="18" style="white-space:pre">4.1.2.直接看解答</tspan></text></g><g ed:height="37.88888904783461" transform="matrix(1,0,0,1,751.61,989.75)" ed:parentid="200" ed:layout="leftmap" id="208" ed:width="181.3200002733867"><path stroke="#00bc7b" fill="none" stroke-linejoin="round" stroke-width="5.33333" d="M18.9,0L162.4,0C172.8,0,181.3,8.5,181.3,18.9C181.3,29.4,172.8,37.9,162.4,37.9L18.9,37.9C8.5,37.9,0,29.4,0,18.9C0,8.5,8.5,0,18.9,0z"/><text class="st14"><tspan y="27.617" textLength="139" x="18" style="white-space:pre">4.2.突击式复习</tspan></text></g><g ed:height="33.44444444444444" transform="matrix(1,0,0,1,315.05,972)" ed:parentid="208" ed:layout="leftmap" id="210" ed:width="401.4533333333333"><path stroke="#00bc7b" fill="none" stroke-linejoin="round" stroke-width="4" d="M16.7,0L384.7,0C394,0,401.5,7.5,401.5,16.7C401.5,26,394,33.4,384.7,33.4L16.7,33.4C7.5,33.4,0,26,0,16.7C0,7.5,7.5,0,16.7,0z"/><text class="st15"><tspan y="24.283" textLength="371" x="18" style="white-space:pre">4.2.1.缺少工作记忆和长期记忆间的来回查找</tspan></text></g><g ed:height="33.44444444444444" transform="matrix(1,0,0,1,235.05,1011.94)" ed:parentid="208" ed:layout="leftmap" id="212" ed:width="481.4533333333333"><path stroke="#00bc7b" fill="none" stroke-linejoin="round" stroke-width="4" d="M16.7,0L464.7,0C474,0,481.5,7.5,481.5,16.7C481.5,26,474,33.4,464.7,33.4L16.7,33.4C7.5,33.4,0,26,0,16.7C0,7.5,7.5,0,16.7,0z"/><text class="st15"><tspan y="24.283" textLength="453" x="18" style="white-space:pre">4.2.2.知识需要经过多次存入提取才能变成自己的东西 </tspan></text></g><g ed:height="37.88888904783461" transform="matrix(1,0,0,1,708.94,1051.89)" ed:parentid="200" ed:layout="leftmap" id="214" ed:width="223.9866669400533"><path stroke="#00bc7b" fill="none" stroke-linejoin="round" stroke-width="5.33333" d="M18.9,0L205,0C215.5,0,224,8.5,224,18.9C224,29.4,215.5,37.9,205,37.9L18.9,37.9C8.5,37.9,0,29.4,0,18.9C0,8.5,8.5,0,18.9,0z"/><text class="st14"><tspan y="27.617" textLength="181" x="18" style="white-space:pre">4.3.书上划太多重点</tspan></text></g><g ed:height="33.44444444444444" transform="matrix(1,0,0,1,328.39,1054.11)" ed:parentid="214" ed:layout="leftmap" id="216" ed:width="345.4533333333333"><path stroke="#00bc7b" fill="none" stroke-linejoin="round" stroke-width="4" d="M16.7,0L328.7,0C338,0,345.5,7.5,345.5,16.7C345.5,26,338,33.4,328.7,33.4L16.7,33.4C7.5,33.4,0,26,0,16.7C0,7.5,7.5,0,16.7,0z"/><text class="st15"><tspan y="24.283" textLength="314" x="18" style="white-space:pre">4.3.1.划重点的动作带来已记住的错觉</tspan></text></g><g ed:height="53.66666650772095" transform="matrix(1,0,0,1,1016.03,691.16)" ed:parentid="101" ed:layout="leftmap" id="218" ed:width="181.14666639328"><path stroke="#486aff" fill="none" stroke-linejoin="round" stroke-width="6.66667" d="M26.8,0L154.3,0C169.1,0,181.1,12,181.1,26.8C181.1,41.7,169.1,53.7,154.3,53.7L26.8,53.7C12,53.7,0,41.7,0,26.8C0,12,12,0,26.8,0z"/><text class="st16"><tspan y="36.394" textLength="118" x="31" style="white-space:pre">5.考试技巧</tspan></text></g><g ed:height="37.88888904783461" transform="matrix(1,0,0,1,573.83,576.89)" ed:parentid="218" ed:layout="leftmap" id="220" ed:width="407.0977780511645"><path stroke="#486aff" fill="none" stroke-linejoin="round" stroke-width="5.33333" d="M18.9,0L388.2,0C398.6,0,407.1,8.5,407.1,18.9C407.1,29.4,398.6,37.9,388.2,37.9L18.9,37.9C8.5,37.9,0,29.4,0,18.9C0,8.5,8.5,0,18.9,0z"/><text class="st17"><tspan y="27.617" textLength="361" x="18" style="white-space:pre">5.1.先做难题，2分钟想不出去做简单题</tspan></text></g><g ed:height="33.44444444444444" transform="matrix(1,0,0,1,342.61,579.11)" ed:parentid="220" ed:layout="leftmap" id="222" ed:width="196.12"><path stroke="#486aff" fill="none" stroke-linejoin="round" stroke-width="4" d="M16.7,0L179.4,0C188.6,0,196.1,7.5,196.1,16.7C196.1,26,188.6,33.4,179.4,33.4L16.7,33.4C7.5,33.4,0,26,0,16.7C0,7.5,7.5,0,16.7,0z"/><text class="st18"><tspan y="24.283" textLength="162" x="18" style="white-space:pre">5.1.1.利用发散模式</tspan></text></g><g ed:height="28.44444444444444" transform="matrix(1,0,0,1,63.99,564.14)" ed:parentid="222" ed:layout="leftmap" id="224" ed:width="243.52"><path stroke="#486aff" fill="none" stroke-linejoin="round" stroke-width="3" d="M14.2,0L229.3,0C237.2,0,243.5,6.4,243.5,14.2C243.5,22.1,237.2,28.4,229.3,28.4L14.2,28.4C6.4,28.4,0,22.1,0,14.2C0,6.4,6.4,0,14.2,0z"/><text class="st19"><tspan y="20.672" textLength="212" x="13" style="white-space:pre">5.1.1.1.发现难题中卡住的症结</tspan></text></g><g ed:height="28.44444444444444" transform="matrix(1,0,0,1,127.99,599.08)" ed:parentid="222" ed:layout="leftmap" id="226" ed:width="179.52"><path stroke="#486aff" fill="none" stroke-linejoin="round" stroke-width="3" d="M14.2,0L165.3,0C173.2,0,179.5,6.4,179.5,14.2C179.5,22.1,173.2,28.4,165.3,28.4L14.2,28.4C6.4,28.4,0,22.1,0,14.2C0,6.4,6.4,0,14.2,0z"/><text class="st19"><tspan y="20.672" textLength="148" x="13" style="white-space:pre">5.1.1.2.减轻定式效应</tspan></text></g><g ed:height="37.88888904783461" transform="matrix(1,0,0,1,820.94,678.07)" ed:parentid="218" ed:layout="leftmap" id="228" ed:width="159.9866669400533"><path stroke="#486aff" fill="none" stroke-linejoin="round" stroke-width="5.33333" d="M18.9,0L141,0C151.5,0,160,8.5,160,18.9C160,29.4,151.5,37.9,141,37.9L18.9,37.9C8.5,37.9,0,29.4,0,18.9C0,8.5,8.5,0,18.9,0z"/><text class="st17"><tspan y="27.617" textLength="118" x="18" style="white-space:pre">5.2.定势效应</tspan></text></g><g ed:height="33.44444444444444" transform="matrix(1,0,0,1,328.39,634.02)" ed:parentid="228" ed:layout="leftmap" id="230" ed:width="457.4533333333333"><path stroke="#486aff" fill="none" stroke-linejoin="round" stroke-width="4" d="M16.7,0L440.7,0C450,0,457.5,7.5,457.5,16.7C457.5,26,450,33.4,440.7,33.4L16.7,33.4C7.5,33.4,0,26,0,16.7C0,7.5,7.5,0,16.7,0z"/><text class="st18"><tspan y="24.283" textLength="428" x="18" style="white-space:pre">5.2.1.脑中出现的第一个想法阻碍了寻找更好的答案</tspan></text></g><g ed:height="33.44444444444444" transform="matrix(1,0,0,1,533.72,726.56)" ed:parentid="228" ed:layout="leftmap" id="232" ed:width="252.12"><path stroke="#486aff" fill="none" stroke-linejoin="round" stroke-width="4" d="M16.7,0L235.4,0C244.6,0,252.1,7.5,252.1,16.7C252.1,26,244.6,33.4,235.4,33.4L16.7,33.4C7.5,33.4,0,26,0,16.7C0,7.5,7.5,0,16.7,0z"/><text class="st18"><tspan y="24.283" textLength="219" x="18" style="white-space:pre">5.2.2.易受影响的人群特点</tspan></text></g><g ed:height="28.44444444444444" transform="matrix(1,0,0,1,367.1,673.97)" ed:parentid="232" ed:layout="leftmap" id="234" ed:width="131.52"><path stroke="#486aff" fill="none" stroke-linejoin="round" stroke-width="3" d="M14.2,0L117.3,0C125.2,0,131.5,6.4,131.5,14.2C131.5,22.1,125.2,28.4,117.3,28.4L14.2,28.4C6.4,28.4,0,22.1,0,14.2C0,6.4,6.4,0,14.2,0z"/><text class="st19"><tspan y="20.672" textLength="100" x="13" style="white-space:pre">5.2.2.1.聪明的</tspan></text></g><g ed:height="28.44444444444444" transform="matrix(1,0,0,1,367.1,720.89)" ed:parentid="232" ed:layout="leftmap" id="236" ed:width="131.52"><path stroke="#486aff" fill="none" stroke-linejoin="round" stroke-width="3" d="M14.2,0L117.3,0C125.2,0,131.5,6.4,131.5,14.2C131.5,22.1,125.2,28.4,117.3,28.4L14.2,28.4C6.4,28.4,0,22.1,0,14.2C0,6.4,6.4,0,14.2,0z"/><text class="st19"><tspan y="20.672" textLength="100" x="13" style="white-space:pre">5.2.2.2.记忆好</tspan></text></g><g ed:height="26.19444444444444" transform="matrix(1,0,0,1,22,708.91)" ed:parentid="236" ed:layout="leftmap" id="238" ed:width="310"><path stroke="#486aff" fill="none" stroke-linejoin="round" stroke-width="2" d="M0,26.2L310,26.2"/><text class="st19"><tspan y="19.197" textLength="289" x="8" style="white-space:pre">5.2.2.2.1.失去从大脑深处寻找创意的动机</tspan></text></g><g ed:height="28.44444444444444" transform="matrix(1,0,0,1,319.1,784.15)" ed:parentid="232" ed:layout="leftmap" id="240" ed:width="179.52"><path stroke="#486aff" fill="none" stroke-linejoin="round" stroke-width="3" d="M14.2,0L165.3,0C173.2,0,179.5,6.4,179.5,14.2C179.5,22.1,173.2,28.4,165.3,28.4L14.2,28.4C6.4,28.4,0,22.1,0,14.2C0,6.4,6.4,0,14.2,0z"/><text class="st19"><tspan y="20.672" textLength="148" x="13" style="white-space:pre">5.2.2.3.工作记忆区大</tspan></text></g><g ed:height="26.19444444444444" transform="matrix(1,0,0,1,86,755.83)" ed:parentid="240" ed:layout="leftmap" id="242" ed:width="198"><path stroke="#486aff" fill="none" stroke-linejoin="round" stroke-width="2" d="M0,26.2L198,26.2"/><text class="st19"><tspan y="19.197" textLength="177" x="8" style="white-space:pre">5.2.2.3.1.困在不对的区块</tspan></text></g><g ed:height="26.19444444444444" transform="matrix(1,0,0,1,70,788.52)" ed:parentid="240" ed:layout="leftmap" id="244" ed:width="214"><path stroke="#486aff" fill="none" stroke-linejoin="round" stroke-width="2" d="M0,26.2L214,26.2"/><text class="st19"><tspan y="19.197" textLength="193" x="8" style="white-space:pre">5.2.2.3.2.寻找不存在的东西</tspan></text></g><g ed:height="37.88888904783461" transform="matrix(1,0,0,1,756.94,821.22)" ed:parentid="218" ed:layout="leftmap" id="246" ed:width="223.9866669400533"><path stroke="#486aff" fill="none" stroke-linejoin="round" stroke-width="5.33333" d="M18.9,0L205,0C215.5,0,224,8.5,224,18.9C224,29.4,215.5,37.9,205,37.9L18.9,37.9C8.5,37.9,0,29.4,0,18.9C0,8.5,8.5,0,18.9,0z"/><text class="st17"><tspan y="27.617" textLength="181" x="18" style="white-space:pre">5.3.换不同环境学习</tspan></text></g><g ed:height="33.44444444444444" transform="matrix(1,0,0,1,395.05,823.44)" ed:parentid="246" ed:layout="leftmap" id="248" ed:width="326.7866666666666"><path stroke="#486aff" fill="none" stroke-linejoin="round" stroke-width="4" d="M16.7,0L310.1,0C319.3,0,326.8,7.5,326.8,16.7C326.8,26,319.3,33.4,310.1,33.4L16.7,33.4C7.5,33.4,0,26,0,16.7C0,7.5,7.5,0,16.7,0z"/><text class="st18"><tspan y="24.283" textLength="295" x="18" style="white-space:pre">5.3.1.避免环境改变造思考能力下降</tspan></text></g><g ed:height="53.66666650772095" transform="matrix(1,0,0,1,968.03,375.91)" ed:parentid="101" ed:layout="leftmap" id="250" ed:width="229.14666639328"><path stroke="#4d49be" fill="none" stroke-linejoin="round" stroke-width="6.66667" d="M26.8,0L202.3,0C217.1,0,229.1,12,229.1,26.8C229.1,41.7,217.1,53.7,202.3,53.7L26.8,53.7C12,53.7,0,41.7,0,26.8C0,12,12,0,26.8,0z"/><text class="st20"><tspan y="36.394" textLength="166" x="31" style="white-space:pre">6.平衡的重要性</tspan></text></g><g ed:height="37.88888904783461" transform="matrix(1,0,0,1,687.61,288.14)" ed:parentid="250" ed:layout="leftmap" id="252" ed:width="245.3200002733867"><path stroke="#4d49be" fill="none" stroke-linejoin="round" stroke-width="5.33333" d="M18.9,0L226.4,0C236.8,0,245.3,8.5,245.3,18.9C245.3,29.4,236.8,37.9,226.4,37.9L18.9,37.9C8.5,37.9,0,29.4,0,18.9C0,8.5,8.5,0,18.9,0z"/><text class="st21"><tspan y="27.617" textLength="202" x="18" style="white-space:pre">6.1.不能永远保持专注</tspan></text></g><g ed:height="37.88888904783461" transform="matrix(1,0,0,1,516.94,332.52)" ed:parentid="250" ed:layout="leftmap" id="254" ed:width="415.9866669400533"><path stroke="#4d49be" fill="none" stroke-linejoin="round" stroke-width="5.33333" d="M18.9,0L397,0C407.5,0,416,8.5,416,18.9C416,29.4,407.5,37.9,397,37.9L18.9,37.9C8.5,37.9,0,29.4,0,18.9C0,8.5,8.5,0,18.9,0z"/><text class="st21"><tspan y="27.617" textLength="370" x="18" style="white-space:pre">6.2.适时地放松可让大脑发现更好的答案</tspan></text></g><g ed:height="37.88888904783461" transform="matrix(1,0,0,1,602.27,376.91)" ed:parentid="250" ed:layout="leftmap" id="256" ed:width="330.65333360672"><path stroke="#4d49be" fill="none" stroke-linejoin="round" stroke-width="5.33333" d="M18.9,0L311.7,0C322.2,0,330.7,8.5,330.7,18.9C330.7,29.4,322.2,37.9,311.7,37.9L18.9,37.9C8.5,37.9,0,29.4,0,18.9C0,8.5,8.5,0,18.9,0z"/><text class="st21"><tspan y="27.617" textLength="286" x="18" style="white-space:pre">6.3.专注模式和发散模式的平衡</tspan></text></g><g ed:height="37.88888904783461" transform="matrix(1,0,0,1,623.61,421.3)" ed:parentid="250" ed:layout="leftmap" id="258" ed:width="309.3200002733867"><path stroke="#4d49be" fill="none" stroke-linejoin="round" stroke-width="5.33333" d="M18.9,0L290.4,0C300.8,0,309.3,8.5,309.3,18.9C309.3,29.4,300.8,37.9,290.4,37.9L18.9,37.9C8.5,37.9,0,29.4,0,18.9C0,8.5,8.5,0,18.9,0z"/><text class="st21"><tspan y="27.617" textLength="265" x="18" style="white-space:pre">6.4.高记忆力和创造力的平衡</tspan></text></g><g ed:height="65.44444460339017" transform="matrix(1,0,0,1,342.43,465.69)" ed:parentid="250" ed:layout="leftmap" id="260" ed:width="590.4933336067199"><path stroke="#4d49be" fill="none" stroke-linejoin="round" stroke-width="5.33333" d="M32.7,0L557.8,0C575.8,0,590.5,14.6,590.5,32.7C590.5,50.8,575.8,65.4,557.8,65.4L32.7,65.4C14.6,65.4,0,50.8,0,32.7C0,14.6,14.6,0,32.7,0z"/><text class="st21"><tspan y="27.617" textLength="515" x="28" style="white-space:pre">6.5.输入学习材料——>独家记忆——>不同的解决方案</tspan><tspan y="55.172" textLength="250" x="28" style="white-space:pre">——>奖赏——>更爱学习</tspan></text></g></svg>