<svg ed:name="画布 1" height="568" xmlns:xlink="http://www.w3.org/1999/xlink" width="1717" ed:hSpacing="30" xmlns:ed="https://www.edrawsoft.cn/xml/2017/SVGExtensions/" xmlns="http://www.w3.org/2000/svg" xmlns:ev="http://www.w3.org/2001/xml-events" id="page300000100" viewBox="0 0 1717 568" ed:vSpacing="30"><style type="text/css"><![CDATA[
g[ed\:togtopicid],g[ed\:hyperlink],g[ed\:comment],g[ed\:note] {cursor:pointer;}
g[id] {-moz-user-select: none;-ms-user-select: none;user-select: none;}
svg text::selection,svg tspan::selection{background-color: #4285f4;color: #ffffff;fill: #ffffff;}
.st6 {fill:#5c9dff;font-family:微软雅黑;font-size:14pt}
.st5 {fill:#5c9dff;font-family:微软雅黑;font-size:16pt}
.st4 {fill:#5c9dff;font-family:微软雅黑;font-size:18pt;font-weight:bold}
.st3 {fill:#92d050;font-family:微软雅黑;font-size:16pt}
.st2 {fill:#92d050;font-family:微软雅黑;font-size:18pt;font-weight:bold}
.st8 {fill:#ff0000;font-family:微软雅黑;font-size:16pt}
.st7 {fill:#ff0000;font-family:微软雅黑;font-size:18pt;font-weight:bold}
.st11 {fill:#ffc000;font-family:微软雅黑;font-size:14pt}
.st10 {fill:#ffc000;font-family:微软雅黑;font-size:16pt}
.st9 {fill:#ffc000;font-family:微软雅黑;font-size:18pt;font-weight:bold}
.st1 {fill:#ffffff;font-family:微软雅黑;font-size:20pt;font-weight:bold}
]]></style><defs/><rect fill="#ffffff" height="568" width="1717" y="0" x="0"/><path fill="#92d050" d="M-16.6,13.7C-19.1,18.2,-17.6,22.8,-14.1,24.6C-10.6,26.4,-6,24.9,-3.8,20.2C-2.8,18.2,-1.9,16.2,-0.8,14.2C0.2,12.3,1.3,10.3,2.4,8.4C3.5,6.5,4.7,4.6,5.9,2.7C7.1,0.8,8.4,-1,9.7,-2.9C11,-4.7,12.4,-6.5,13.7,-8.2C15.1,-10,16.6,-11.7,18,-13.4C19.5,-15.1,21,-16.8,22.6,-18.4C24.1,-20,25.7,-21.6,27.3,-23.1C29,-24.7,30.6,-26.1,32.4,-27.6C34.1,-29,35.8,-30.4,37.6,-31.8C39.4,-33.1,41.3,-34.4,43.1,-35.6C45,-36.8,46.9,-38,48.9,-39.1C50.8,-40.2,52.8,-41.2,54.8,-42.2C56.9,-43.1,58.9,-44,61,-44.8C63.1,-45.6,65.2,-46.3,67.4,-47C69.5,-47.6,71.7,-48.2,73.9,-48.6C76,-49.1,78,-49.5,80.5,-49.8C83,-50.1,85.9,-50.3,87.2,-50.4C88.6,-50.4,88.4,-50.4,88.3,-50.4C86.2,-50.1,91.7,-51.7,91.7,-53.2C91.7,-54.8,86.2,-55.9,88.3,-56.1C88.4,-56.1,88.6,-56.1,87.2,-56.1C85.7,-56.1,82.6,-56.1,79.9,-56C77.3,-55.8,75,-55.6,72.7,-55.2C70.4,-54.9,67.9,-54.4,65.5,-53.9C63.2,-53.4,60.8,-52.7,58.5,-52C56.2,-51.3,53.9,-50.5,51.6,-49.6C49.4,-48.7,47.1,-47.8,44.9,-46.7C42.7,-45.7,40.6,-44.6,38.4,-43.4C36.3,-42.2,34.2,-40.9,32.2,-39.6C30.1,-38.3,28.1,-36.9,26.2,-35.5C24.2,-34.1,22.3,-32.6,20.4,-31C18.5,-29.5,16.7,-27.9,14.9,-26.3C13.1,-24.6,11.3,-23,9.6,-21.2C7.9,-19.5,6.2,-17.8,4.6,-16C3,-14.2,1.4,-12.3,-0.1,-10.4C-1.7,-8.6,-3.2,-6.7,-4.6,-4.7C-6.1,-2.8,-7.5,-0.8,-8.9,1.2C-10.3,3.2,-11.6,5.3,-12.9,7.4C-14.1,9.5,-15.4,11.6,-16.6,13.7z" transform="matrix(1,0,0,1,1040.2,215.7)" stroke="#92d050" ed:parentid="101" stroke-linejoin="round" stroke-linecap="round" ed:tosuperid="102" id="103"/><path fill="none" d="M-17.5,11.1L-6.5,11.1C-6.5,6.7,11.5,-11.1,17.5,-11.1" transform="matrix(1,0,0,1,1327.15,151.37)" stroke="#92d050" ed:parentid="102" stroke-width="5.33333" stroke-linejoin="round" stroke-linecap="round" ed:tosuperid="104" id="105"/><path fill="none" d="M-6.5,-11.1C-6.5,-6.7,11.5,11.1,17.5,11.1" transform="matrix(1,0,0,1,1327.15,173.57)" stroke="#92d050" ed:parentid="102" stroke-width="5.33333" stroke-linejoin="round" stroke-linecap="round" ed:tosuperid="106" id="107"/><path fill="#5c9dff" d="M-3.8,-20.2C-6,-24.9,-10.6,-26.4,-14.1,-24.6C-17.6,-22.8,-19.1,-18.2,-16.6,-13.7C-15.4,-11.6,-14.1,-9.5,-12.9,-7.4C-11.6,-5.3,-10.3,-3.2,-8.9,-1.2C-7.5,0.8,-6.1,2.8,-4.6,4.7C-3.2,6.7,-1.7,8.6,-0.1,10.4C1.4,12.3,3,14.2,4.6,16C6.2,17.8,7.9,19.5,9.6,21.2C11.3,23,13.1,24.6,14.9,26.3C16.7,27.9,18.5,29.5,20.4,31C22.3,32.6,24.2,34.1,26.2,35.5C28.1,36.9,30.1,38.3,32.2,39.6C34.2,40.9,36.3,42.2,38.4,43.4C40.6,44.6,42.7,45.7,44.9,46.7C47.1,47.8,49.4,48.7,51.6,49.6C53.9,50.5,56.2,51.3,58.5,52C60.8,52.7,63.2,53.4,65.5,53.9C67.9,54.4,70.4,54.9,72.7,55.2C75,55.6,77.3,55.8,79.9,56C82.6,56.1,85.7,56.1,87.2,56.1C88.6,56.1,88.4,56.1,88.3,56.1C86.2,55.9,91.7,54.8,91.7,53.2C91.7,51.7,86.2,50.1,88.3,50.4C88.4,50.4,88.6,50.4,87.2,50.4C85.9,50.3,83,50.1,80.5,49.8C78,49.5,76,49.1,73.9,48.6C71.7,48.2,69.5,47.6,67.4,47C65.2,46.3,63.1,45.6,61,44.8C58.9,44,56.9,43.1,54.8,42.2C52.8,41.2,50.8,40.2,48.9,39.1C46.9,38,45,36.8,43.1,35.6C41.3,34.4,39.4,33.1,37.6,31.8C35.8,30.4,34.1,29,32.4,27.6C30.6,26.1,29,24.7,27.3,23.1C25.7,21.6,24.1,20,22.6,18.4C21,16.8,19.5,15.1,18,13.4C16.6,11.7,15.1,10,13.7,8.2C12.4,6.5,11,4.7,9.7,2.9C8.4,1,7.1,-0.8,5.9,-2.7C4.7,-4.6,3.5,-6.5,2.4,-8.4C1.3,-10.3,0.2,-12.3,-0.8,-14.2C-1.9,-16.2,-2.8,-18.2,-3.8,-20.2z" transform="matrix(1,0,0,1,1040.2,322.17)" stroke="#5c9dff" ed:parentid="101" stroke-linejoin="round" stroke-linecap="round" ed:tosuperid="108" id="109"/><path fill="none" d="M-17.5,59.9L-6.5,59.9C-6.5,36,11.5,-59.9,17.5,-59.9" transform="matrix(1,0,0,1,1327.15,315.48)" stroke="#5c9dff" ed:parentid="108" stroke-width="5.33333" stroke-linejoin="round" stroke-linecap="round" ed:tosuperid="110" id="111"/><path fill="none" d="M-6.5,37.7C-6.5,22.6,11.5,-37.7,17.5,-37.7" transform="matrix(1,0,0,1,1327.15,337.67)" stroke="#5c9dff" ed:parentid="108" stroke-width="5.33333" stroke-linejoin="round" stroke-linecap="round" ed:tosuperid="112" id="113"/><path fill="none" d="M-6.5,15.5C-6.5,9.3,11.5,-15.5,17.5,-15.5" transform="matrix(1,0,0,1,1327.15,359.87)" stroke="#5c9dff" ed:parentid="108" stroke-width="5.33333" stroke-linejoin="round" stroke-linecap="round" ed:tosuperid="114" id="115"/><path fill="none" d="M-6.5,-6.7C-6.5,-4,11.5,6.7,17.5,6.7" transform="matrix(1,0,0,1,1327.15,382.06)" stroke="#5c9dff" ed:parentid="108" stroke-width="5.33333" stroke-linejoin="round" stroke-linecap="round" ed:tosuperid="116" id="117"/><path fill="none" d="M-6.5,-28.9C-6.5,-17.3,11.5,28.9,17.5,28.9" transform="matrix(1,0,0,1,1327.15,404.26)" stroke="#5c9dff" ed:parentid="108" stroke-width="5.33333" stroke-linejoin="round" stroke-linecap="round" ed:tosuperid="118" id="119"/><path fill="none" d="M-6.5,-59.9C-6.5,-36,11.5,59.9,17.5,59.9" transform="matrix(1,0,0,1,1327.15,435.33)" stroke="#5c9dff" ed:parentid="108" stroke-width="5.33333" stroke-linejoin="round" stroke-linecap="round" ed:tosuperid="120" id="121"/><path fill="none" d="M-17.5,10L-6.5,10C-6.5,6,11.5,-10,17.5,-10" transform="matrix(1,0,0,1,1479.57,485.26)" stroke="#5c9dff" ed:parentid="120" stroke-width="4" stroke-linejoin="round" stroke-linecap="round" ed:tosuperid="122" id="123"/><path fill="none" d="M-6.5,-10C-6.5,-6,11.5,10,17.5,10" transform="matrix(1,0,0,1,1479.57,505.24)" stroke="#5c9dff" ed:parentid="120" stroke-width="4" stroke-linejoin="round" stroke-linecap="round" ed:tosuperid="124" id="125"/><path fill="#ff0000" d="M-8.3,-0C-4.7,-3.8,-5.3,-8.7,-8.3,-11.2C-11.4,-13.7,-16.2,-13.2,-19.3,-9.1C-20.7,-7.4,-22,-5.7,-23.4,-4.1C-24.8,-2.4,-26.3,-0.8,-27.8,0.7C-29.3,2.3,-30.9,3.8,-32.6,5.2C-34.2,6.7,-35.9,8.1,-37.7,9.4C-39.5,10.8,-41.3,12,-43.1,13.3C-44.9,14.5,-46.8,15.6,-48.8,16.7C-50.7,17.8,-52.7,18.8,-54.7,19.8C-56.7,20.7,-58.8,21.6,-60.8,22.4C-62.9,23.2,-65,23.9,-67.2,24.5C-69.3,25.2,-71.6,25.8,-73.7,26.2C-75.8,26.7,-77.9,27.1,-80.3,27.4C-82.8,27.8,-85.7,28,-87.1,28.1C-88.5,28.3,-88.4,28.2,-88.3,28.2C-86.3,27.8,-91.7,29.5,-91.7,31C-91.7,32.6,-86.2,33.6,-88.3,33.9C-88.4,33.9,-88.5,33.9,-87,33.9C-85.5,34,-82.4,34,-79.8,33.9C-77.1,33.8,-74.9,33.6,-72.5,33.4C-70.2,33.1,-67.7,32.7,-65.3,32.3C-62.9,31.8,-60.5,31.2,-58.2,30.6C-55.8,30,-53.5,29.2,-51.2,28.4C-48.9,27.6,-46.6,26.7,-44.3,25.7C-42.1,24.8,-39.8,23.7,-37.7,22.6C-35.5,21.4,-33.3,20.2,-31.2,18.9C-29.1,17.6,-27.1,16.3,-25,14.8C-23,13.4,-21.1,11.9,-19.1,10.3C-17.2,8.7,-15.3,7.1,-13.5,5.4C-11.7,3.6,-10,1.8,-8.3,-0z" transform="matrix(1,0,0,1,863.7,299.98)" stroke="#ff0000" ed:parentid="101" stroke-linejoin="round" stroke-linecap="round" ed:tosuperid="126" id="127"/><path fill="none" d="M17.5,11.1L6.5,11.1C6.5,6.7,-11.5,-11.1,-17.5,-11.1" transform="matrix(1,0,0,1,576.76,319.92)" stroke="#ff0000" ed:parentid="126" stroke-width="5.33333" stroke-linejoin="round" stroke-linecap="round" ed:tosuperid="128" id="129"/><path fill="#ffc000" d="M-19.3,9.1C-16.2,13.2,-11.4,13.7,-8.3,11.2C-5.3,8.7,-4.7,3.8,-8.3,0C-10,-1.8,-11.7,-3.6,-13.5,-5.4C-15.3,-7.1,-17.2,-8.7,-19.1,-10.3C-21.1,-11.9,-23,-13.4,-25,-14.8C-27.1,-16.3,-29.1,-17.6,-31.2,-18.9C-33.3,-20.2,-35.5,-21.4,-37.7,-22.6C-39.8,-23.7,-42.1,-24.8,-44.3,-25.7C-46.6,-26.7,-48.9,-27.6,-51.2,-28.4C-53.5,-29.2,-55.8,-30,-58.2,-30.6C-60.5,-31.2,-62.9,-31.8,-65.3,-32.3C-67.7,-32.7,-70.2,-33.1,-72.5,-33.4C-74.9,-33.6,-77.1,-33.8,-79.8,-33.9C-82.4,-34,-85.5,-34,-87,-33.9C-88.5,-33.9,-88.4,-33.9,-88.3,-33.9C-86.2,-33.6,-91.7,-32.6,-91.7,-31C-91.7,-29.5,-86.3,-27.8,-88.3,-28.2C-88.4,-28.2,-88.5,-28.3,-87.1,-28.1C-85.7,-28,-82.8,-27.8,-80.3,-27.4C-77.9,-27.1,-75.8,-26.7,-73.7,-26.2C-71.6,-25.8,-69.3,-25.2,-67.2,-24.5C-65,-23.9,-62.9,-23.2,-60.8,-22.4C-58.8,-21.6,-56.7,-20.7,-54.7,-19.8C-52.7,-18.8,-50.7,-17.8,-48.8,-16.7C-46.8,-15.6,-44.9,-14.5,-43.1,-13.3C-41.3,-12,-39.5,-10.8,-37.7,-9.4C-35.9,-8.1,-34.2,-6.7,-32.6,-5.2C-30.9,-3.8,-29.3,-2.3,-27.8,-0.7C-26.3,0.8,-24.8,2.4,-23.4,4.1C-22,5.7,-20.7,7.4,-19.3,9.1z" transform="matrix(1,0,0,1,863.7,237.9)" stroke="#ffc000" ed:parentid="101" stroke-linejoin="round" stroke-linecap="round" ed:tosuperid="130" id="131"/><path fill="none" d="M17.5,15.5L6.5,15.5C6.5,9.3,-11.5,-15.5,-17.6,-15.5" transform="matrix(1,0,0,1,576.76,191.33)" stroke="#ffc000" ed:parentid="130" stroke-width="5.33333" stroke-linejoin="round" stroke-linecap="round" ed:tosuperid="132" id="133"/><path fill="none" d="M17.5,10L6.5,10C6.5,6,-11.5,-10,-17.5,-10" transform="matrix(1,0,0,1,275,165.81)" stroke="#ffc000" ed:parentid="132" stroke-width="4" stroke-linejoin="round" stroke-linecap="round" ed:tosuperid="134" id="135"/><path fill="none" d="M6.6,-10C6.6,-6,-11.5,10,-17.6,10" transform="matrix(1,0,0,1,275,185.78)" stroke="#ffc000" ed:parentid="132" stroke-width="4" stroke-linejoin="round" stroke-linecap="round" ed:tosuperid="136" id="137"/><path fill="none" d="M6.5,-15.5C6.5,-9.3,-11.5,15.5,-17.6,15.5" transform="matrix(1,0,0,1,576.76,222.4)" stroke="#ffc000" ed:parentid="130" stroke-width="5.33333" stroke-linejoin="round" stroke-linecap="round" ed:tosuperid="138" id="139"/><path fill="none" d="M6.5,-11.1C6.5,-6.7,-11.5,11.1,-17.6,11.1" transform="matrix(1,0,0,1,576.76,342.11)" stroke="#ff0000" ed:parentid="126" stroke-width="5.33333" stroke-linejoin="round" stroke-linecap="round" ed:tosuperid="146" id="147"/><g transform="matrix(1,0,0,1,838.45,232.66)" ed:height="72.55555555555556" ed:topictype="mainidea" ed:width="227" id="101" ed:layout="map"><path fill="#1e88e5" d="M36.3,0L190.7,0C210.8,0,227,16.2,227,36.3C227,56.3,210.8,72.6,190.7,72.6L36.3,72.6C16.2,72.6,0,56.3,0,36.3C0,16.2,16.2,0,36.3,0z" stroke="#1e88e5" stroke-width="8" stroke-linejoin="round"/><text class="st1"><tspan textLength="162" style="white-space:pre" y="46.728" x="33">阅读后的总结</tspan></text></g><g transform="matrix(1,0,0,1,1128.45,135.64)" ed:parentid="101" ed:height="53.66666984558105" ed:width="181.1466721343994" id="102" ed:layout="rightmap"><path fill="none" d="M26.8,0L154.3,0C169.1,0,181.1,12,181.1,26.8C181.1,41.7,169.1,53.7,154.3,53.7L26.8,53.7C12,53.7,0,41.7,0,26.8C0,12,12,0,26.8,0z" stroke="#92d050" stroke-width="6.66667" stroke-linejoin="round"/><text class="st2"><tspan textLength="118" style="white-space:pre" y="36.394" x="31">1.提炼内容</tspan></text></g><g transform="matrix(1,0,0,1,1344.7,121.33)" ed:parentid="102" ed:height="37.8888857099745" ed:width="223.9866611989339" id="104" ed:layout="rightmap"><path fill="none" d="M18.9,0L205,0C215.5,0,224,8.5,224,18.9C224,29.4,215.5,37.9,205,37.9L18.9,37.9C8.5,37.9,0,29.4,0,18.9C0,8.5,8.5,0,18.9,0z" stroke="#92d050" stroke-width="5.33333" stroke-linejoin="round"/><text class="st3"><tspan textLength="181" style="white-space:pre" y="27.617" x="18">1.1.作者想表达什么</tspan></text></g><g transform="matrix(1,0,0,1,1344.7,165.72)" ed:parentid="102" ed:height="37.8888857099745" ed:width="223.9866611989339" id="106" ed:layout="rightmap"><path fill="none" d="M18.9,0L205,0C215.5,0,224,8.5,224,18.9C224,29.4,215.5,37.9,205,37.9L18.9,37.9C8.5,37.9,0,29.4,0,18.9C0,8.5,8.5,0,18.9,0z" stroke="#92d050" stroke-width="5.33333" stroke-linejoin="round"/><text class="st3"><tspan textLength="181" style="white-space:pre" y="27.617" x="18">1.2.作者的行文思路</tspan></text></g><g transform="matrix(1,0,0,1,1128.45,348.57)" ed:parentid="101" ed:height="53.66666984558105" ed:width="181.1466721343994" id="108" ed:layout="rightmap"><path fill="none" d="M26.8,0L154.3,0C169.1,0,181.1,12,181.1,26.8C181.1,41.7,169.1,53.7,154.3,53.7L26.8,53.7C12,53.7,0,41.7,0,26.8C0,12,12,0,26.8,0z" stroke="#5c9dff" stroke-width="6.66667" stroke-linejoin="round"/><text class="st4"><tspan textLength="118" style="white-space:pre" y="36.394" x="31">2.分类要点</tspan></text></g><g transform="matrix(1,0,0,1,1344.7,236.61)" ed:parentid="108" ed:height="37.8888857099745" ed:width="138.6533278656006" id="110" ed:layout="rightmap"><path fill="none" d="M18.9,0L119.7,0C130.2,0,138.7,8.5,138.7,18.9C138.7,29.4,130.2,37.9,119.7,37.9L18.9,37.9C8.5,37.9,0,29.4,0,18.9C0,8.5,8.5,0,18.9,0z" stroke="#5c9dff" stroke-width="5.33333" stroke-linejoin="round"/><text class="st5"><tspan textLength="97" style="white-space:pre" y="27.617" x="18">2.1.没看懂</tspan></text></g><g transform="matrix(1,0,0,1,1344.7,281)" ed:parentid="108" ed:height="37.8888857099745" ed:width="159.9866611989339" id="112" ed:layout="rightmap"><path fill="none" d="M18.9,0L141,0C151.5,0,160,8.5,160,18.9C160,29.4,151.5,37.9,141,37.9L18.9,37.9C8.5,37.9,0,29.4,0,18.9C0,8.5,8.5,0,18.9,0z" stroke="#5c9dff" stroke-width="5.33333" stroke-linejoin="round"/><text class="st5"><tspan textLength="118" style="white-space:pre" y="27.617" x="18">2.2.耳目一新</tspan></text></g><g transform="matrix(1,0,0,1,1344.7,325.39)" ed:parentid="108" ed:height="37.8888857099745" ed:width="159.9866611989339" id="114" ed:layout="rightmap"><path fill="none" d="M18.9,0L141,0C151.5,0,160,8.5,160,18.9C160,29.4,151.5,37.9,141,37.9L18.9,37.9C8.5,37.9,0,29.4,0,18.9C0,8.5,8.5,0,18.9,0z" stroke="#5c9dff" stroke-width="5.33333" stroke-linejoin="round"/><text class="st5"><tspan textLength="118" style="white-space:pre" y="27.617" x="18">2.3.深受启发</tspan></text></g><g transform="matrix(1,0,0,1,1344.7,369.78)" ed:parentid="108" ed:height="37.8888857099745" ed:width="159.9866611989339" id="116" ed:layout="rightmap"><path fill="none" d="M18.9,0L141,0C151.5,0,160,8.5,160,18.9C160,29.4,151.5,37.9,141,37.9L18.9,37.9C8.5,37.9,0,29.4,0,18.9C0,8.5,8.5,0,18.9,0z" stroke="#5c9dff" stroke-width="5.33333" stroke-linejoin="round"/><text class="st5"><tspan textLength="118" style="white-space:pre" y="27.617" x="18">2.4.总结提炼</tspan></text></g><g transform="matrix(1,0,0,1,1344.7,414.17)" ed:parentid="108" ed:height="37.8888857099745" ed:width="159.9866611989339" id="118" ed:layout="rightmap"><path fill="none" d="M18.9,0L141,0C151.5,0,160,8.5,160,18.9C160,29.4,151.5,37.9,141,37.9L18.9,37.9C8.5,37.9,0,29.4,0,18.9C0,8.5,8.5,0,18.9,0z" stroke="#5c9dff" stroke-width="5.33333" stroke-linejoin="round"/><text class="st5"><tspan textLength="118" style="white-space:pre" y="27.617" x="18">2.5.烂熟于心</tspan></text></g><g transform="matrix(1,0,0,1,1344.7,476.31)" ed:parentid="108" ed:height="37.8888857099745" ed:width="117.3199945322673" id="120" ed:layout="rightmap"><path fill="none" d="M18.9,0L98.4,0C108.8,0,117.3,8.5,117.3,18.9C117.3,29.4,108.8,37.9,98.4,37.9L18.9,37.9C8.5,37.9,0,29.4,0,18.9C0,8.5,8.5,0,18.9,0z" stroke="#5c9dff" stroke-width="5.33333" stroke-linejoin="round"/><text class="st5"><tspan textLength="76" style="white-space:pre" y="27.617" x="18">2.6.存疑</tspan></text></g><g transform="matrix(1,0,0,1,1497.12,458.56)" ed:parentid="120" ed:height="33.44444444444444" ed:width="196.12" id="122" ed:layout="rightmap"><path fill="none" d="M16.7,0L179.4,0C188.6,0,196.1,7.5,196.1,16.7C196.1,26,188.6,33.4,179.4,33.4L16.7,33.4C7.5,33.4,0,26,0,16.7C0,7.5,7.5,0,16.7,0z" stroke="#5c9dff" stroke-width="4" stroke-linejoin="round"/><text class="st6"><tspan textLength="162" style="white-space:pre" y="24.283" x="18">2.6.1.疑问点是什么</tspan></text></g><g transform="matrix(1,0,0,1,1497.12,498.5)" ed:parentid="120" ed:height="33.44444444444444" ed:width="196.12" id="124" ed:layout="rightmap"><path fill="none" d="M16.7,0L179.4,0C188.6,0,196.1,7.5,196.1,16.7C196.1,26,188.6,33.4,179.4,33.4L16.7,33.4C7.5,33.4,0,26,0,16.7C0,7.5,7.5,0,16.7,0z" stroke="#5c9dff" stroke-width="4" stroke-linejoin="round"/><text class="st6"><tspan textLength="162" style="white-space:pre" y="24.283" x="18">2.6.2.如何解答疑惑</tspan></text></g><g transform="matrix(1,0,0,1,594.31,304.18)" ed:parentid="101" ed:height="53.66666984558105" ed:width="181.1466721343994" id="126" ed:layout="leftmap"><path fill="none" d="M26.8,0L154.3,0C169.1,0,181.1,12,181.1,26.8C181.1,41.7,169.1,53.7,154.3,53.7L26.8,53.7C12,53.7,0,41.7,0,26.8C0,12,12,0,26.8,0z" stroke="#ff0000" stroke-width="6.66667" stroke-linejoin="round"/><text class="st7"><tspan textLength="118" style="white-space:pre" y="36.394" x="31">3.细化知识</tspan></text></g><g transform="matrix(1,0,0,1,313.89,289.87)" ed:parentid="126" ed:height="37.8888857099745" ed:width="245.3199945322672" id="128" ed:layout="leftmap"><path fill="none" d="M18.9,0L226.4,0C236.8,0,245.3,8.5,245.3,18.9C245.3,29.4,236.8,37.9,226.4,37.9L18.9,37.9C8.5,37.9,0,29.4,0,18.9C0,8.5,8.5,0,18.9,0z" stroke="#ff0000" stroke-width="5.33333" stroke-linejoin="round"/><text class="st8"><tspan textLength="202" style="white-space:pre" y="27.617" x="18">3.1.与已有知识的关联</tspan></text></g><g transform="matrix(1,0,0,1,594.31,180.03)" ed:parentid="101" ed:height="53.66666984558105" ed:width="181.1466721343994" id="130" ed:layout="leftmap"><path fill="none" d="M26.8,0L154.3,0C169.1,0,181.1,12,181.1,26.8C181.1,41.7,169.1,53.7,154.3,53.7L26.8,53.7C12,53.7,0,41.7,0,26.8C0,12,12,0,26.8,0z" stroke="#ffc000" stroke-width="6.66667" stroke-linejoin="round"/><text class="st9"><tspan textLength="118" style="white-space:pre" y="36.394" x="31">4.评价内容</tspan></text></g><g transform="matrix(1,0,0,1,292.55,156.85)" ed:parentid="130" ed:height="37.8888857099745" ed:width="266.6533278656005" id="132" ed:layout="leftmap"><path fill="none" d="M18.9,0L247.7,0C258.2,0,266.7,8.5,266.7,18.9C266.7,29.4,258.2,37.9,247.7,37.9L18.9,37.9C8.5,37.9,0,29.4,0,18.9C0,8.5,8.5,0,18.9,0z" stroke="#ffc000" stroke-width="5.33333" stroke-linejoin="round"/><text class="st10"><tspan textLength="223" style="white-space:pre" y="27.617" x="18">4.1.评价内容对我的价值</tspan></text></g><g transform="matrix(1,0,0,1,98.67,139.1)" ed:parentid="132" ed:height="33.44444444444444" ed:width="158.7866666666667" id="134" ed:layout="leftmap"><path fill="none" d="M16.7,0L142.1,0C151.3,0,158.8,7.5,158.8,16.7C158.8,26,151.3,33.4,142.1,33.4L16.7,33.4C7.5,33.4,0,26,0,16.7C0,7.5,7.5,0,16.7,0z" stroke="#ffc000" stroke-width="4" stroke-linejoin="round"/><text class="st11"><tspan textLength="124" style="white-space:pre" y="24.283" x="18">4.1.1.是否有用</tspan></text></g><g transform="matrix(1,0,0,1,24,179.04)" ed:parentid="132" ed:height="33.44444444444444" ed:width="233.4533333333333" id="136" ed:layout="leftmap"><path fill="none" d="M16.7,0L216.7,0C226,0,233.5,7.5,233.5,16.7C233.5,26,226,33.4,216.7,33.4L16.7,33.4C7.5,33.4,0,26,0,16.7C0,7.5,7.5,0,16.7,0z" stroke="#ffc000" stroke-width="4" stroke-linejoin="round"/><text class="st11"><tspan textLength="200" style="white-space:pre" y="24.283" x="18">4.1.2.是否值得再次阅读</tspan></text></g><g transform="matrix(1,0,0,1,335.22,218.99)" ed:parentid="130" ed:height="37.8888857099745" ed:width="223.9866611989339" id="138" ed:layout="leftmap"><path fill="none" d="M18.9,0L205,0C215.5,0,224,8.5,224,18.9C224,29.4,215.5,37.9,205,37.9L18.9,37.9C8.5,37.9,0,29.4,0,18.9C0,8.5,8.5,0,18.9,0z" stroke="#ffc000" stroke-width="5.33333" stroke-linejoin="round"/><text class="st10"><tspan textLength="181" style="white-space:pre" y="27.617" x="18">4.2.内容的合适受众</tspan></text></g><g transform="matrix(1,0,0,1,292.55,334.26)" ed:parentid="126" ed:height="37.8888857099745" ed:width="266.6533278656005" id="146" ed:layout="leftmap"><path fill="none" d="M18.9,0L247.7,0C258.2,0,266.7,8.5,266.7,18.9C266.7,29.4,258.2,37.9,247.7,37.9L18.9,37.9C8.5,37.9,0,29.4,0,18.9C0,8.5,8.5,0,18.9,0z" stroke="#ff0000" stroke-width="5.33333" stroke-linejoin="round"/><text class="st8"><tspan textLength="223" style="white-space:pre" y="27.617" x="18">3.2.在知识框架中的位置</tspan></text></g></svg>